<?xml version="1.0" encoding="utf-8"?>
<!-- Generator: Adobe Illustrator 23.1.0, SVG Export Plug-In . SVG Version: 6.00 Build 0)  -->
<svg version="1.1" id="Layer_1" xmlns="http://www.w3.org/2000/svg" xmlns:xlink="http://www.w3.org/1999/xlink" x="0px" y="0px"
	 viewBox="0 0 595.28 841.89" style="enable-background:new 0 0 595.28 841.89;" xml:space="preserve">
<style type="text/css">
	.st0{fill:#1D3867;}
	.st1{fill:#FDFDFD;}
	.st2{fill:#020202;}
</style>
<g>
	<g>
		<path class="st0" d="M893.91,539.86c0,3.67,0,7.33,0,11c-1.62,4.71-4.94,8.12-8.92,10.76c-25.81,17.16-52.36,32.81-82.46,41.59
			c-16.79,4.9-34.38,6.09-51.01,11.65c-6.3,2.11-12.82,3.5-19.43,4.43c-4.18,0.59-6.73-0.37-8.15-4.91
			c-1.92-6.16-4.43-12.2-7.24-18.02c-8.24-17.08-19.49-31.44-37.78-38.67c-25.68-10.14-49.71,2.48-56.08,29.24
			c-2.71,11.36-2.29,22.81-0.88,34.25c2.63,21.43,8.24,41.83,22.2,58.94c20.89,25.59,62.92,40.73,94.65-1.53
			c7.4-9.86,13.79-20.36,18.73-31.7c2.89-6.63,7.54-9.29,14.31-7.82c16.62,3.59,33.54,5.12,50.3,7.74
			c19.16,2.99,37.86,7.37,54.85,17.26c5.39,3.13,7.59,7.64,6.68,13.79c-1.95,13.16-4.32,26.23-7.78,39.1
			c-12.07,44.82-34.73,82.78-71.45,111.97c-26.89,21.37-57.61,33.23-91.16,38.92c-27.24,4.62-54.55,7.11-81.96,2.54
			c-54.63-9.11-98.83-35.87-132.6-79.82c-0.1-0.13-0.21-0.26-0.31-0.39c-5.98-7.54-15.42-6.93-20.02,1.57
			c-6.62,12.24-14.06,23.71-25.07,32.6c-29.82,24.06-63.95,38.4-101.37,45.42c-45.85,8.61-92,12.44-138.6,7.97
			c-20.22-1.94-40.3-4.81-60.01-9.83c-7.75-1.97-10.56-5.65-10.47-13.46c0.11-8.66,0.42-17.31,0.61-25.96
			c0.11-4.97-1.97-8.72-6.49-10.88c-4.72-2.26-9.05-1.3-12.93,2.05c-1.51,1.3-2.96,2.69-4.48,3.98
			c-42.05,35.54-90.44,55.61-145.54,58.01c-39.36,1.72-77.91-4.62-115.98-14.44c-27.64-7.14-52.7-18.88-74.69-37.35
			c-27.63-23.2-45.92-52.36-59.15-85.64c-20.47-51.52-26.16-103.96-12.47-157.87c15.87-62.51,51.88-110.77,105.57-146.09
			c10.01-6.59,10.04-15.69-0.03-21.97c-5.22-3.26-10.49-6.44-15.65-9.78c-21.17-13.73-41.45-28.58-57.39-48.44
			c-23.39-29.14-34.29-63.4-40.22-99.66c-1.22-7.47-1.04-15.11-2.95-22.48c0-12.33,0-24.66,0-36.99c1.61-0.54,0.89-1.94,1.03-2.97
			c0.79-6.11,1.26-12.27,2.29-18.33c11.18-65.87,42.45-120.3,94.16-162.54c39.12-31.96,84.01-50.62,134.53-55.41
			c5.31-0.5,10.82,0.45,15.96-1.69c2.67,0,5.33,0,8,0c0.56,1.6,1.94,0.95,2.97,0.97c34.5,0.93,67.04,9.4,97.63,25.32
			C77.43-3.42,95.09,9.27,105.99,29.54c5.12,9.53,13.79,10.32,20.78,1.96c6.2-7.41,12.69-14.56,19.91-20.99
			c37.76-33.67,80.81-53,132.47-47.43c34.26,3.69,63.91,17.59,87.66,43c16.73,17.9,25.38,40.38,34.38,62.52
			c3.44,8.46,0.75,14.54-7.16,20.35c-15.99,11.72-31.23,24.39-46.75,36.7c-8.59,6.81-8.09,15.19,1.2,20.92
			c14.61,9,27.21,20.23,37.88,33.67c0.72,0.9,1.06,2.47,2.73,2.37c0.19-0.37,0.41-0.64,0.46-0.94c0.13-0.82,0.24-1.65,0.27-2.48
			c1.17-34.31,9.45-66.86,26.04-96.87c39.47-71.39,99.92-111.67,181.17-120.62c5.3-0.58,10.8,0.43,15.93-1.71c2.33,0,4.67,0,7,0
			c0.56,1.6,1.94,0.94,2.97,0.98c60.59,1.94,112.55,24.16,155.46,66.92c78.63,78.37,88.79,202.82,23.89,292.9
			c-15.89,22.06-34,42.06-58.65,55.04c1.32,0.34,2.75,0.76,4.2,1.09c16.28,3.68,31.96,9.08,46.74,16.88
			c48,25.32,76.79,65.84,92.32,116.85C889.8,520.25,891.52,530.13,893.91,539.86z M511.92,111.01c0.36-0.31,0.71-0.61,1.07-0.92
			c1.65-2.35,3.31-4.69,4.96-7.04c2.51-1.8,5.1-3.53,6.84-6.16c1.24-1.88,3.96-3.29,2.13-6.23c0.49-0.88,1.1-1.6,2.22-1.63
			c6.07-0.91,11.11-4.38,14.42-8.88c2.06-2.8,3.75-3.83,6.79-4.51c4.54-1,9.35-2.64,12.25-6.09c1.88-2.24,3.38-2.35,5.66-2.66
			c3.41-0.47,6.82-1.26,10.12-2.29c5.75-1.81,5.68-1.91,2.9-7.07c-0.76-1.42-1.92-2.78-1.44-4.61c2.37-1.46,5.57,0.01,7.78-2.26
			c-0.88-1.65-1.77-3.31-2.67-4.98c2.56-3.15,5.86-5.64,7.99-9.18c0.79-1.31,2.59-2.3,1.01-4.16c0.88-1.92,3.62-2.38,3.83-4.83
			c-6.24-2.98-12.33-2.85-18.31,0.57c-1.53-0.36-3.06-0.72-4.59-1.08c0.67-5.41,1.92-10.84-0.45-16.19
			c-3.03,0.63-4.74,3.17-7.33,4.2c-0.16-3.25-1.23-4.15-4.71-2.95c-5.61,1.93-9.43,6.46-14.54,9.03c-3.91,0.25-5.06,4.1-7.74,5.95
			c-0.67-1.49-1.36-2.98-2.01-4.48c-0.54-1.25-1.43-1.97-2.67-1.14c-5.68,3.78-11.96,7.03-13.63,14.56
			c-3.53,1.23-4.18,4.99-6.44,7.32c-1.5-2.16-3.04-4.3-4.49-6.5c-0.78-1.17-1.51-1.65-2.71-0.5c-6.14,5.88-11.98,11.92-12.16,21.21
			c-0.21,1.72-0.62,3.36-1.99,4.57c-3.34-0.42-4.55-3.54-6.75-5.4c-1.47-1.24-2.25-1.93-3.83,0.07
			c-6.26,7.95-10.48,16.36-7.39,26.84c0.93,1.2,0,2.26-0.25,3.37c-3.04-2.26-6.08-4.54-9.14-6.79c-1.47-1.09-2.66-1.69-3.98,0.51
			c-5.34,8.89-7.3,22.95-0.67,31.42l0.29,0.36l-0.29,0.36c-4.33-1.24-7.51-4.69-11.85-6c-1.94-0.58-3.13-0.74-3.67,1.5
			c-0.96,4.01-2.33,7.89-2.55,12.1c-0.37,7.24,2.55,13.31,7.07,19.57c-4.39-1.37-7.88-2.32-11.27-3.56
			c-3.25-1.2-4.59,0.55-4.62,3.18c-0.05,4.78-0.49,9.55,0.63,14.38c1.29,5.57,4.86,9.59,8.53,14.3c-4.22-0.5-7.77-0.96-11.34-1.32
			c-1.64-0.16-2.91,0.21-2.98,2.34c-0.25,8.22,1.26,15.84,6.98,22.18c1.49,1.65,3.61,2.82,4.55,5.18
			c-13.76,0.99-15.14,3.72-8.34,15.91c0.08,0.15,0.21,0.27,0.27,0.42c2.46,5.61,7.16,9.12,12.36,12.29
			c-2.93,2.1-5.91,1.85-8.59,2.59c-3.33,0.91-3.93,2.06-2.52,5.38c4,9.4,10.13,16.52,20.74,20.22c-3.68,1.71-6.41,3.3-9.34,4.24
			c-3.25,1.04-2.63,2.35-1.24,4.62c5.5,9.03,12.83,15.42,24.64,17.03c-4.26,3-7.71,5.44-11.19,7.89
			c7.44,9.63,16.55,15.82,30.54,15.81c-4.05,2.42-6.01,4.89-8.4,6.83c-2.71,2.21-1.83,3.58,0.43,5.29
			c8.44,6.36,17.54,10.3,28.56,7.88c-1.79,4.44-7.93,7.56-6.31,11.27c1.46,3.33,7.35,4.46,11.74,5.59c6.6,1.7,13.19,1.31,20.58-0.61
			c-2.99,4.28-4.61,8.16-5.93,12.19c8.39,3,16.53,4.69,25.12,2.46c7.61-1.97,13.08-6.96,18.24-12.45c1.38-1.46,2.68-3.19,5.03-2.49
			c3.83,1.15,7.91,1.58,12.11,3.78c-5.45,3.68-9.49,8.08-13.76,12.24c-1.9,1.85-1.89,3.09,0.09,4.76c3.18,2.67,6.39,5.34,9.26,8.32
			c1.94,2.02,2.97,2.18,4.9-0.08c4.98-5.85,10.78-10.8,17.46-14.7c1.9-1.11,3.5-1.61,5.47-0.26c6.19,4.21,12.63,8.19,17.13,14.31
			c2.1,2.85,3.73,3.03,5.81,0.52c4.06-4.89,9.55-7.6,15.12-10.25c5.15-2.45,5.11-2.54,1.17-6.41c-0.47-0.47-0.99-0.89-1.49-1.33
			c1.02-2.05-0.74-2.86-1.82-3.86c-2.13-1.96-4.37-3.78-6.57-5.66c1.47-2.45,3.18-1.78,4.84-0.28c1.23,1.11,2.4,2.3,3.5,3.54
			c10.41,11.69,23.18,13.55,37.53,9.12c2.78-0.86,3.96-2.01,2.32-4.92c-1.2-2.14-2.04-4.49-3.04-6.74c2.14-0.14,4.24-1.16,6.42-0.24
			c6.24,0.79,12.17-0.26,17.91-2.77c7.15-3.13,7.15-3.09,3.86-9.67c-0.21-0.42-0.2-0.96-0.29-1.44c2.1-2.16,6.17-0.7,7.59-4.11
			c5.61,0.02,10.06-2.88,14.66-5.58c3.94-2.31,6.58-4.74,2.67-9.21c1.01-1.64,2.92-1.89,4.43-2.68c2.04-1.08,1.76-2.25,0.82-3.76
			c5.99-3.17,11.33-7.12,15.96-12.14c1.92-2.08,0.91-3-0.57-4.22c5.76-5.24,5.76-5.24,1.6-8.54c6.3-4.68,12.43-9.5,14.94-17.43
			c1.17-2.15,3.62-3.34,4.44-6.09c-2.55-1.01-5.07-2-7.6-3c0.63-1.84,2.61-2.31,3.73-3.68c2.52-3.06,5.99-5.52,5.99-10.07l0.28,0.09
			l-0.09,0.28c0.41-0.53,0.81-1.06,1.22-1.59c1.95-2.62,3.96-5.21,5.85-7.88c1.46-2.07,0.83-3.13-1.71-3.5
			c-2.73-0.4-5.58,0.24-8.22-0.91c-0.21-2.2,1.79-2.99,2.84-4.37c1.86-2.46,4.18-4.66,3.95-8.12l0.28,0.14c0,0-0.12,0.29-0.12,0.29
			c0.38-0.45,0.75-0.91,1.13-1.36c2.79-3.26,5.51-6.52,7.2-10.58c1.27-3.05,1.37-4.36-2.66-4.26c-4.55,0.11-8.77,1.53-13.15,2.32
			c-2.21-2.19,0.79-2.45,1.44-3.25c2.52-3.11,6.24-5.44,5.99-10.18c0,0,0.06,0.3,0.06,0.3c0.37-0.39,0.74-0.78,1.11-1.18
			c3.4-3.43,6.31-7.15,7.46-12c0.42-1.77,1.49-3.88,0.49-5.21c-1.22-1.61-3.32-0.18-5.03,0.19c-1.92,0.42-3.85,0.82-5.77,1.24
			c-2.84,0.27-5.68,0.54-9.27,0.88c3.23-3.91,6.56-6.87,7.12-11.44c3.28-3.84,6.94-7.38,8-12.68c1.81-9.07,1.46-9.47-6.91-6.83
			c-1.13-2.24-2.82-0.77-4.21-0.52c-2.87,0.52-5.69,1.27-8.54,1.92c-0.21-0.22-0.42-0.43-0.64-0.64c0.91-1.89,2.57-3.49,2.26-5.85
			c0,0-0.03,0.16-0.03,0.16c0.36-0.36,0.73-0.73,1.09-1.09c3.72-5.12,8.34-9.65,8.18-16.83c-0.21-9.22,0.03-9.22-7.86-4.94
			c-1.58-2.59-3.33-3.73-6.35-1.66c-2.64,1.81-5.65,3.08-8.5,4.58c-2.07-2.22-0.13-3.39,1.17-4.85c5.04-5.69,9.02-11.88,7.92-19.97
			c-0.37-2.71-0.18-6.58-2.61-7.57c-2.29-0.93-3.91,2.78-6,4.22c-0.14,0.09-0.29,0.16-0.43,0.25c-2.23-4.75-5.15-6.31-9.51-2.21
			c-0.37,0.35-1.49-0.11-2.27-0.19c0.7-1.83,1.44-3.66,2.09-5.51c2.8-7.92,1.51-15.02-3.67-20.42c-2.28,1.33-2.81,4.33-5.27,5.49
			c-3.36-1.81-5.21-8.69-10.73-3.19c0.04-1.31-0.09-2.65,0.14-3.93c1.34-7.41-1.66-13.15-6.85-18.46c-1.56,2.63-2.97,4.99-4.38,7.35
			c-2.34-0.99-3.74-3.08-5.39-4.82c-1.67-1.77-3.33-2.95-5.84-2.12c-1.45-6.29-4.28-11.65-10.09-15.18
			c-1.92,2.69-1.94,5.82-3.18,8.49c-3.77-3.66-7.25-7.76-13.01-8.27c-1.33-1.86-2.46-3.9-4.03-5.53c-1.91-1.99-4.3-4.9-6.78-4.32
			c-2.69,0.62-1.09,4.61-2.19,6.88c-3.5-1.86-7.08-3.59-10.49-5.62c-3.23-1.93-4.77-1.46-5.73,2.45c-0.81,3.3,0.1,9.38-6.92,6.36
			c-0.39-0.17-1.19,0.49-1.74,0.86c-5.4,3.59-10.74,7.26-16.19,10.77c-1.95,1.26-1.67,2.28-0.45,3.88
			c3.28,4.27,6.71,8.45,11.86,10.38c4.21,1.58,4.03,3.24,1.79,6.68c-5.91,9.08-5.15,10.04,5.76,12.18
			c4.17,0.82,8.76-0.26,12.38,4.38c2.88,3.69,8.22,5.46,13.47,5.54c1.19,0.02,2.86,0.34,3.01,1.34c1.03,6.62,7.26,7.39,11.38,10.54
			c2.25,1.72,7.47,0.52,6.02,6.03c-0.1,0.36,0.86,0.95,1.22,1.5c2.91,4.43,7.05,7.43,11.51,10.1c0.78,0.46,3.2,0.5,1.88,1.96
			c-2.21,2.44,0.12,3.62,0.88,5.11c2.14,4.15,5.02,7.68,8.51,10.89c3.34,3.08,0.62,8.36,3.43,12.13c2.16,2.89,3.56,6.36,6.06,9.08
			c0.52,0.57,2.06,1.5,0.45,2.14c-2.49,0.99-1.21,2.47-1.15,4.03c0.31,7.79,6.83,14.46,3.65,23.02c-1.3,3.51,0.36,7.51,1.46,11.18
			c0.32,1.09,1.05,2.7,0.59,3.27c-4.51,5.64-3,12.17-2.96,18.47c0,0.8,0.31,1.38-0.44,2.17c-3.39,3.51-4.14,8.09-4.86,12.68
			c-0.35,2.25-0.23,5.18-1.59,6.54c-4.67,4.67-6.54,10.52-8.33,16.5c-0.23,0.76-0.04,1.63-1,2.08c-6.04,2.82-8.28,8.72-11.29,13.99
			c-0.48,0.83-0.71,2.26-1.36,2.47c-6.54,2.14-10.26,7.37-14.13,12.48c-0.48,0.64-1.09,1.59-1.71,1.64
			c-5.72,0.47-9.33,4.54-13.5,7.67c-1.37,1.03-2.65,2.12-1.83,4.13l-0.07-0.14c-2.2-1.06-4.32-0.91-6.67-0.14
			c-16.44,5.4-24.06,15.73-25.4,34.69c-0.6,0.18-1.19,0.36-1.79,0.54c-1.98-1.3-3.91-0.23-5.67,0.4c-4.9,1.76-9.43,1.39-14.37-0.42
			c-8.35-3.06-16.8-6.05-25.72-7.18c-0.16-1.47-0.32-2.93-0.48-4.4c-1.26-12.09-6.58-21.16-18.68-25.31
			c-1.38,2.13-0.78,4.61-1.6,6.76c-1.26-0.37-2.53-0.75-3.79-1.12c-1.83-4.03-3.71-7.96-7.01-11.12c-6.26-6-6.17-6.08-8.91,1.93
			c-0.05,0.15-0.19,0.27-0.29,0.4c-1.28-0.45-2.55-0.91-3.83-1.36c-0.88-7.77-3.88-14.35-10.58-19.25
			c-1.43,2.84-2.67,5.33-3.92,7.81c-1.05-0.99-1.91-2.21-3.45-2.54c0.78-8.01-1.06-15.2-6.45-21.34c-2.8,1.68-3.24,4.9-5.58,6.53
			c-1.06-1.1-2.12-2.19-3.18-3.29c1.42-5.18,1.79-10.33,0.15-15.57c-2.2-7-2.61-7.15-7.54-1.99c-0.67,0.71-1.41,1.35-2.12,2.02
			c-0.74-1.4-1.49-2.8-2.23-4.2c1.23-4.04,3.45-7.79,3.08-12.3c-0.25-3.13,0.31-7.26-1.91-8.85c-2.25-1.61-4.3,2.69-6.93,3.48
			c-0.74-1.45-1.48-2.9-2.22-4.36c4.66-6.2,6.31-13.07,4.83-20.92c-2.17,0.75-4.12,1.43-6.08,2.1c-2.44-0.44-2.82-2.22-2.77-4.27
			c2.71-3.09,5.57-6.02,6.91-10.11c2.72-8.33,2.09-9.16-6.3-7.65c-0.16,0.03-0.33-0.02-0.5-0.03c-0.55-2.72,2.62-4.53,1.77-7.33
			c0,0,0.04,0.28,0.04,0.28c0.37-0.33,0.75-0.66,1.12-0.99c2.52-3,5.29-5.78,6.74-9.57c2.16-5.62,2.14-5.77-3.67-6.11
			c0.13-3.37,4.22-5.1,3.63-8.77l0.26,0.19c0,0-0.18,0.26-0.18,0.26c0.37-0.46,0.73-0.92,1.1-1.38c2.16-3,4.9-5.55,6.39-9.07
			c0.58-1.37,1.01-2.33-0.52-3.18c0.71-4.01,5.94-5.87,5.08-10.63c0,0,0.05,0.25,0.05,0.25c0.38-0.35,0.76-0.7,1.13-1.05
			C511.99,110.89,511.92,111.01,511.92,111.01z M581.04,103.87c-2.08-1.59-3.65-4.88-6.99-2.85c-4.54,2.76-8.99,5.69-13.28,8.83
			c-2.94,2.15-2.62,5.53,0.68,6.99c4,1.77,5.86,5.09,6.34,8.9c0.6,4.73,1.23,9.48,1.2,14.33c-0.16,27.63-0.03,55.27-0.13,82.9
			c-0.01,4.12-0.42,8.28-1.16,12.33c-0.7,3.81-2.23,7.45-6.33,8.93c-3.06,1.11-2.55,3.54-2.32,5.78c0.29,2.89,2.71,1.91,4.31,1.92
			c18.65,0.05,37.3,0.41,55.94-0.15c12.23-0.37,23.95-3.67,33.92-11.22c3.46-2.62,7.56-4.99,8.7-9.81c1.01-0.84,2.01-1.69,3.04-2.51
			c24.38-19.52,19.84-53.05-8.74-64.43c-6.36-2.53-6.47-2.72-0.99-6.86c5.73-4.33,10.38-9.3,11.83-16.62
			c3.11-15.63-5.3-28.38-21.96-33.31c-7.24-2.14-14.69-2.67-22.16-2.78C608.97,104.03,595.01,103.98,581.04,103.87z M-92.9,737.17
			c8.97-0.19,17.8-0.36,26.46-3.01c15.42-4.72,28.04-13.46,38.37-25.65c2.34-2.76,3.54-3.04,5.39,0.65
			c2.75,5.51,6.59,10.33,11.38,14.37c16.23,13.68,35.01,15.75,54.89,11.75c16.45-3.31,30.31-11.47,41.6-23.98
			c2.1-2.32,3.95-5.07,6.92-6.39c24.87-11.06,39.96-30.83,48.83-55.71c7.93-22.26,10.17-45.27,8.33-68.92
			c-1.25-16.1-3.6-31.86-8.32-47.26c-9.37-30.59-26.28-56.11-51.54-75.91c-30.39-23.83-65.86-33.57-103.55-36.01
			c-16.51-1.07-33.15-0.74-49.73,1.6c-22.87,3.22-44.71,9.44-65.28,19.85c-19.59,9.92-36.84,22.92-51.57,39.36
			c-6.65,7.43-11.89,16.02-19.46,22.67c-10.43,9.15-18.93,19.98-26.39,31.6c-19.97,31.11-28.4,65.74-30.23,102.17
			c-0.91,18.08,0.91,36.08,4.94,53.77c8.65,37.96,27.28,70.05,57.11,95.23c32.51,27.45,70.85,40.55,112.74,43.19
			c18.66,1.18,37.47,0.62,56.22-1.52c19.02-2.18,37.57-5.96,55.54-12.35c13.26-4.71,26.79-9,38.31-17.57
			c9.59-7.14,19.07-14.43,28.77-21.42c2.17-1.56,2.13-2.72,1.25-4.89c-5.96-14.6-11.95-29.19-17.56-43.92
			c-1.63-4.27-3.13-4.87-7.25-2.82c-28.01,13.98-57.57,22.81-88.9,24.58c-16.06,0.91-32.22,0.81-48.06-2.94
			C-73.8,745.31-83.64,742.18-92.9,737.17z M699.44,421.82c-7.43,0.26-13.37,0.4-19.34,0.88c-22.43,1.8-43.66,7.61-63.81,17.46
			c-19,9.3-35.63,21.71-49.86,37.48c-6.79,7.52-11.95,16.4-19.8,23.01c-8.17,6.88-14.82,15.16-20.97,23.84
			c-24.39,34.4-33.4,73.55-34.54,114.86c-0.48,17.36,1.32,34.67,4.8,51.78c7.54,37.07,23.41,69.53,51.38,95.65
			c32.12,30,70.83,43.12,113.96,44.97c13.26,0.57,26.5-0.83,39.55-3.06c18.76-3.21,36.46-9.48,53.05-19.05
			c16.34-9.44,28.6-24.28,45.12-33.43c2.87-1.59,5.48-3.77,7.96-5.96c23.35-20.65,38.37-46.3,46.11-76.43
			c1.26-4.91-0.12-6.06-4.59-7.15c-19.28-4.69-38.49-9.65-57.63-14.87c-4.33-1.18-6.9,0.05-9.4,3.21
			c-2.98,3.77-6.22,7.35-9.25,11.09c-7.57,9.35-16.78,17.55-20.37,29.69c-1.5,5.09-5.33,8.02-10.12,10.3
			c-20.32,9.66-41.49,11.62-63.44,7.8c-26.64-4.63-47.47-18.18-62.15-40.83c-14.03-21.65-18.73-46.08-20.07-71.33
			c-0.59-11.11,0.46-22.16,1.79-33.23c2.25-18.72,7.9-36.15,17.49-52.39c4.08-6.91,9.42-11.31,17.42-13.55
			c15.9-4.45,31.8-5.73,48.16-3.76c18.84,2.28,35.58,8.97,49.53,22.07c11.11,10.44,18.91,23.11,24.4,37.18
			c1.4,3.6,2.96,3.73,6.17,2.87c13.72-3.7,27.53-7.08,41.27-10.73c5.71-1.51,11.99-1.66,16.96-5.07
			c10.81-7.43,21.26-15.37,31.97-22.92c2.68-1.89,3.08-3.78,2.05-6.73c-1.69-4.84-2.82-9.88-4.48-14.73
			c-12.56-36.59-35.75-64.19-70.46-81.47C753.12,426.7,726.03,421.79,699.44,421.82z M-258.97,216.32
			c0.32,8.78-0.19,17.56,0.92,26.36c1.12,8.86,2.29,17.7,4.23,26.39c6.66,30,19.25,57.25,39.91,80.18
			c33.88,37.6,77.3,54.12,127.06,55.54c13.91,0.4,27.78-1.31,41.44-3.99c23.29-4.57,44.76-13.45,63.39-28.41
			c8.65-6.95,16.66-14.62,26.28-20.43c9.24-5.58,17.08-13.02,24.44-21.03c17.43-18.96,27.66-41.53,34.24-66.05
			c0.71-2.65,0.25-3.85-2.77-4.6c-20.69-5.14-41.33-10.51-61.97-15.88c-1.96-0.51-3.2-0.53-4.7,1.26
			c-5.66,6.74-11.8,13.1-17.35,19.93c-4.16,5.12-9.91,9.32-11.77,15.9c-3.32,11.77-11.27,18.08-22.48,21.59
			c-17.51,5.48-35.1,6.99-53.31,3.99c-27.17-4.49-48.05-18.21-63.08-41.05c-15.23-23.15-19.17-49.4-20.3-76.28
			c-0.38-9.09,0.82-18.17,1.82-27.23c2.24-20.25,8.46-39.11,19.58-56.22c2.3-3.54,4.74-6.91,9.29-8.57
			c17.49-6.38,35.32-8.07,53.78-5.92c14.12,1.64,27.27,5.69,39.1,13.44c16.86,11.04,27.73,26.97,35.21,45.33
			c1.41,3.46,2.83,4.42,6.51,3.41c13.55-3.72,27.22-7,40.78-10.67c6.18-1.67,12.91-1.89,18.34-5.71
			c10.32-7.25,20.38-14.88,30.73-22.08c2.55-1.78,3.18-3.77,2.52-6.34c-6.16-23.95-16.21-46.05-32.82-64.6
			C40.5,11.6,2.13-2.23-40.92-4.91C-60-6.1-79.02-4.58-97.69-0.01c-28.07,6.88-53.1,19.46-74.73,38.84
			c-13.82,12.38-24.13,27.88-37.46,40.73c-16.52,15.93-27.73,35.55-35.78,56.92C-255.33,162.19-259.66,188.85-258.97,216.32z
			 M257.4-5.01c-2.5,0-5.01,0.15-7.49-0.04c-2.56-0.2-4.91,0.69-7.36,1c-31.48,3.93-56.14,18.94-73.72,45.41
			c-2.13,3.21-4.69,5.86-7.7,8.35c-8.46,7.01-16.06,14.91-21.7,24.45c-11.35,19.2-16.15,39.75-14.61,62.21
			c1.68,24.48,10.65,45.33,27.83,62.59c13.15,13.22,29.08,22.54,45.52,31.04c16.09,8.31,32.99,14.98,48.78,23.9
			c5.8,3.27,11.48,6.69,16.55,11.04c11.66,9.98,17.59,22.06,14.68,37.86c-0.56,3.06-1.51,4.54-4.21,4.96
			c-3.43,0.53-6.9,1.06-10.36,1.08c-20.48,0.13-36.32-9.04-48.59-24.9c-11.05-14.28-17.74-30.69-22.35-47.97
			c-0.98-3.68-2.07-3.85-5.04-1.94c-13.43,8.59-27.07,16.86-40.44,25.55c-8.56,5.56-18,9.9-24.55,18.34
			c-5.49,7.07-11.48,13.79-17.59,20.35c-2.22,2.38-2.76,4.47-1.97,7.47c9.88,37.86,31.58,66.67,66.37,84.81
			c25.43,13.25,52.65,16.56,81.05,12.56c27.08-3.81,50.67-14.08,69.3-34.53c1.87-2.05,4.28-3.09,6.59-4.38
			c22.19-12.31,38.1-30.17,47.38-53.84c7.03-17.92,8.87-36.57,8.28-55.66c-0.7-22.59-9.08-41.96-24.28-58.37
			c-19.54-21.1-44.94-33.26-70.33-45.39c-16.93-8.09-34.17-15.7-48.61-28.07c-8.56-7.33-13.85-16.36-13.89-28.04
			c-0.01-3.17,1.17-4.18,4.11-3.86c6.99,0.75,13.65,2.43,19.72,6.18c11.29,6.97,18.63,17.38,24.96,28.61
			c1.68,2.99,2.69,3.57,5.91,1.59c29.57-18.2,58.43-37.42,85.9-58.71c1.91-1.48,1.9-2.64,0.95-4.58
			C360.63,52.03,353.7,40.71,344.46,31C320.8,6.11,291.28-4.75,257.4-5.01z M425.2,596.68c4.57-4.08,9.09-7.2,12.61-11.5
			c13.81-16.84,19.01-36.64,18.98-57.84c-0.01-10.17-1.3-20.43-3.91-30.41c-5.02-19.18-14.4-35.6-30.07-48.12
			c-19.93-15.92-43.46-22.23-68.14-22.68c-47.3-0.87-94.62-0.25-141.94-0.23c-1.43,0-2.7-0.12-3.94,1.35
			c-8.34,9.91-16.78,19.74-25.37,29.42c-1.97,2.22-2.43,4.46-2.43,7.23c0.04,119.44,0.07,238.89-0.08,358.33
			c-0.01,4.83,1.59,5.66,5.93,5.64c40.98-0.15,81.97,0.02,122.95-0.15c13.4-0.06,26.82-0.6,40.07-2.98
			c25.13-4.51,47.62-14.19,65.09-33.57c1.7-1.88,3.72-3.23,5.98-4.4c11.81-6.1,22.17-14.15,30.61-24.4
			c18.44-22.38,24.08-49.06,24.22-77.1c0.05-9.96-1.18-20.08-3.77-29.92c-4.63-17.62-12.98-32.86-26.8-45.02
			C439.16,605.05,432.37,600.99,425.2,596.68z M-123.83,186.46c0.17,8.22,0.61,15.87,1.95,23.41c3.84,21.67,12.7,40.56,30.72,54.17
			c21.06,15.91,48.7,15.07,67.33-2.17c8.54-7.9,14.26-17.92,19.8-28c3.2-5.82,5.89-11.93,9.76-17.37
			c5.72-8.06,11.01-10.1,20.65-7.92c26.59,6,53.17,12.02,79.75,18.05c7.57,1.72,12.28,0.28,15.41-4.77
			c2.98-4.8,2.08-9.45-2.73-15.39c-5.76-7.12-10.88-14.72-15.66-22.51c-9.72-15.81-12.95-17.2-30.48-11.29
			c-25.53,8.61-51.69,14.95-77.59,22.27c-8.4,2.37-13.35-0.48-16.12-8.74c-3.28-9.79-6.9-19.43-12.19-28.33
			c-8.92-15.03-20.6-26.97-37.77-32.31c-23.41-7.27-42.95,3.69-49,27.31C-122.87,164.07-123.19,175.56-123.83,186.46z
			 M413.71,291.07c-5.04,24.53-14.68,45.24-29.22,63.71c-6.42,8.15-3.2,16.54,7,19.27c47.79,12.77,79.02,42.62,92.77,90.34
			c1.51,5.26,4.3,9.06,9.78,10.12c5.42,1.05,9.02-1.82,12.18-5.99c9.87-13.01,20.61-25.26,32.46-36.53
			c8-7.61,16.41-14.74,25.75-21.98c-32.98-8.06-62.08-22.16-88.06-42.58C450.25,346.89,429.72,321.7,413.71,291.07z M143.51,424.84
			c1.86-5.38-2.17-7.99-6.49-10.57c-12.28-7.31-24.54-14.61-33.92-25.82c-5.35-6.39-10.13-13.14-14.8-20.01
			c-4.54-6.68-7.93-7.29-13.78-2.05c-6.43,5.77-12.51,11.93-18.52,18.13c-2.99,3.08-3.63,6.94-2.13,11.12
			c1.57,4.35,4.91,6.37,9.05,7.78c21.8,7.44,42.81,16.42,60.14,32.18c4.21,3.82,8.63,5.74,14,3.19
			C142.59,436.15,144.31,431.38,143.51,424.84z"/>
		<path class="st1" d="M-298.9,237.92c1.91,7.37,1.73,15.01,2.95,22.48c5.93,36.26,16.83,70.52,40.22,99.66
			c15.94,19.85,36.23,34.7,57.39,48.44c5.16,3.35,10.43,6.53,15.65,9.78c10.07,6.28,10.05,15.38,0.03,21.97
			c-53.7,35.32-89.7,83.58-105.57,146.09c-13.69,53.91-8,106.35,12.47,157.87c13.22,33.28,31.52,62.44,59.15,85.64
			c22,18.47,47.05,30.21,74.69,37.35c38.07,9.83,76.61,16.16,115.98,14.44c55.09-2.41,103.48-22.47,145.54-58.01
			c1.53-1.29,2.97-2.68,4.48-3.98c3.88-3.34,8.21-4.3,12.93-2.05c4.52,2.16,6.6,5.91,6.49,10.88c-0.2,8.65-0.51,17.31-0.61,25.96
			c-0.1,7.81,2.71,11.49,10.47,13.46c19.71,5.02,39.79,7.89,60.01,9.83c46.6,4.47,92.75,0.63,138.6-7.97
			c37.41-7.02,71.55-21.36,101.37-45.42c11.01-8.89,18.45-20.36,25.07-32.6c4.6-8.5,14.04-9.12,20.02-1.57
			c0.1,0.13,0.21,0.26,0.31,0.39c33.76,43.94,77.96,70.71,132.6,79.82c27.41,4.57,54.72,2.08,81.96-2.54
			c33.55-5.69,64.27-17.54,91.16-38.92c36.72-29.18,59.38-67.14,71.45-111.97c3.46-12.86,5.84-25.93,7.78-39.1
			c0.91-6.15-1.29-10.66-6.68-13.79c-16.99-9.89-35.69-14.27-54.85-17.26c-16.76-2.62-33.68-4.15-50.3-7.74
			c-6.77-1.46-11.42,1.19-14.31,7.82c-4.95,11.34-11.33,21.84-18.73,31.7c-31.72,42.26-73.75,27.12-94.65,1.53
			c-13.97-17.11-19.57-37.51-22.2-58.94c-1.41-11.45-1.83-22.89,0.88-34.25c6.37-26.75,30.4-39.38,56.08-29.24
			c18.29,7.23,29.54,21.58,37.78,38.67c2.81,5.82,5.32,11.86,7.24,18.02c1.42,4.54,3.97,5.5,8.15,4.91
			c6.61-0.93,13.12-2.32,19.43-4.43c16.62-5.56,34.21-6.75,51.01-11.65c30.1-8.78,56.65-24.43,82.46-41.59
			c3.98-2.65,7.3-6.06,8.92-10.76c0,109.28-0.02,218.57,0.08,327.85c0,3.26-0.43,4.18-4.01,4.18
			c-395.01-0.11-790.03-0.11-1185.04,0.01c-3.73,0-3.92-1.15-3.92-4.26C-298.9,665.06-298.9,451.49-298.9,237.92z"/>
		<path class="st1" d="M893.91,539.86c-2.39-9.73-4.11-19.61-7.04-29.22c-15.53-51.01-44.32-91.53-92.32-116.85
			c-14.78-7.8-30.45-13.2-46.74-16.88c-1.45-0.33-2.88-0.74-4.2-1.09c24.65-12.98,42.76-32.98,58.65-55.04
			c64.9-90.08,54.74-214.53-23.89-292.9c-42.91-42.77-94.86-64.98-155.46-66.92c-1.03-0.03-2.41,0.63-2.97-0.98
			c89.99,0,179.97,0.02,269.96-0.1c3.42,0,4.1,0.67,4.09,4.09C893.89,155.94,893.91,347.9,893.91,539.86z"/>
		<path class="st1" d="M612.95-40.01c-5.13,2.14-10.62,1.12-15.93,1.71c-81.25,8.95-141.7,49.23-181.17,120.62
			c-16.59,30.01-24.87,62.56-26.04,96.87c-0.03,0.83-0.14,1.66-0.27,2.48c-0.05,0.3-0.27,0.57-0.46,0.94
			c-1.66,0.1-2.01-1.46-2.73-2.37c-10.66-13.44-23.27-24.67-37.88-33.67c-9.29-5.73-9.79-14.11-1.2-20.92
			c15.52-12.31,30.76-24.98,46.75-36.7c7.91-5.8,10.6-11.88,7.16-20.35c-9-22.14-17.65-44.62-34.38-62.52
			c-23.75-25.41-53.4-39.31-87.66-43c-51.66-5.57-94.71,13.77-132.47,47.43c-7.22,6.44-13.71,13.58-19.91,20.99
			c-6.99,8.35-15.66,7.57-20.78-1.96C95.09,9.27,77.43-3.42,57.66-13.72C27.07-29.64-5.48-38.11-39.97-39.04
			c-1.03-0.03-2.41,0.63-2.97-0.97C175.69-40.01,394.32-40.01,612.95-40.01z"/>
		<path class="st1" d="M-50.94-40.01c-5.14,2.14-10.65,1.18-15.96,1.69c-50.52,4.8-95.41,23.45-134.53,55.41
			c-51.71,42.25-82.98,96.67-94.16,162.54c-1.03,6.07-1.5,12.23-2.29,18.33c-0.13,1.03,0.58,2.42-1.03,2.97
			c0-78.98,0.03-157.96-0.1-236.95c-0.01-3.42,0.67-4.1,4.1-4.1C-213.58-39.99-132.26-40.01-50.94-40.01z"/>
		<path class="st2" d="M-92.9,737.17c9.26,5,19.11,8.14,29.21,10.53c15.84,3.75,32,3.84,48.06,2.94
			c31.34-1.77,60.89-10.6,88.9-24.58c4.11-2.05,5.62-1.46,7.25,2.82c5.61,14.74,11.59,29.33,17.56,43.92
			c0.89,2.17,0.92,3.33-1.25,4.89c-9.7,6.99-19.18,14.28-28.77,21.42c-11.51,8.57-25.05,12.86-38.31,17.57
			c-17.98,6.39-36.53,10.17-55.54,12.35c-18.75,2.14-37.56,2.7-56.22,1.52c-41.89-2.64-80.24-15.74-112.74-43.19
			c-29.83-25.19-48.47-57.27-57.11-95.23c-4.03-17.69-5.85-35.69-4.94-53.77c1.83-36.43,10.26-71.06,30.23-102.17
			c7.46-11.62,15.96-22.45,26.39-31.6c7.57-6.64,12.81-15.24,19.46-22.67c14.73-16.44,31.98-29.45,51.57-39.36
			c20.57-10.42,42.41-16.63,65.28-19.85c16.58-2.33,33.23-2.66,49.73-1.6c37.69,2.44,73.16,12.18,103.55,36.01
			c25.26,19.8,42.17,45.32,51.54,75.91c4.72,15.4,7.07,31.16,8.32,47.26c1.84,23.65-0.4,46.66-8.33,68.92
			c-8.87,24.88-23.96,44.65-48.83,55.71c-2.97,1.32-4.83,4.07-6.92,6.39c-11.29,12.51-25.14,20.67-41.6,23.98
			c-19.89,4-38.66,1.92-54.89-11.75c-4.79-4.04-8.63-8.86-11.38-14.37c-1.85-3.7-3.05-3.42-5.39-0.65
			c-10.34,12.19-22.95,20.93-38.37,25.65C-75.11,736.81-83.93,736.99-92.9,737.17z M12.41,542.74c-1.01-0.79-1.71-1.23-2.29-1.79
			c-15.27-14.71-33.75-19.84-54.5-18.42c-27.95,1.91-51.76,12.29-69.02,34.89c-19.74,25.83-24.59,55.36-18.22,86.6
			c13.03,63.9,85.91,74.17,121.23,43.66c6.66-5.75,12.5-12.22,18.1-18.99c1.76,1.31,1.86,3.1,2.47,4.58
			c4.28,10.41,11.45,18.24,21.18,23.76c16.56,9.39,33.93,8.72,51.2,2.99c26.8-8.89,42.43-28.9,51.35-54.64
			c11.13-32.13,10.43-64.94,2.81-97.52c-12.12-51.85-42.64-88.76-93.17-106.83c-51.04-18.26-102.64-17.62-153.38,1.7
			c-43.77,16.66-75.35,46.95-94.15,89.9c-17.02,38.87-21.51,79.62-13.75,121.19c11.83,63.38,48.2,107.19,108.3,130.92
			c27.72,10.95,56.71,13.64,86.28,13.14c37.97-0.65,74.26-8.26,108.8-24.14c2.48-1.14,3.59-1.96,2.3-4.99
			c-4.37-10.24-8.51-20.59-12.46-31c-1.1-2.89-2.27-2.81-4.68-1.75c-6.69,2.94-13.39,5.89-20.25,8.4
			c-38.3,14-77.72,19.49-117.7,10.25c-49.09-11.35-83.39-40.75-99.33-89.38c-9.02-27.51-8.98-55.81-3.44-83.95
			c8.92-45.33,32.8-80.09,75.23-100.09c37.36-17.61,76.15-17.87,114.82-4.79c36.64,12.39,59.62,38.2,69.31,75.65
			c6.58,25.43,5.99,51.13,2.04,76.84c-1.55,10.1-4.45,19.86-11.45,27.76c-6.61,7.45-14.98,9.5-24.49,7.22
			c-8.26-1.98-12.49-7.83-14.28-15.68c-1-4.38-1.56-8.88-1.18-13.39c1.06-12.6,2.21-25.2,3.36-37.8c2.07-22.7,4.13-45.41,6.33-68.11
			c0.26-2.72-0.43-3.56-3.1-3.42c-3.49,0.18-7-0.06-10.49,0.07c-5.79,0.22-12.94-2.29-16.99,0.97c-3.77,3.03-4.31,10.08-6.27,15.35
			C12.84,542.04,12.74,542.17,12.41,542.74z M-165.78,615.84c1.35-0.13,1.48-1.21,1.8-2.11c6.63-18.94,17.19-35.05,33.6-47.02
			c2.14-1.56,3.68-3.75,5.11-6.06c6.26-10.12,14.04-18.89,23.68-25.95c20.06-14.69,42.6-20.68,67.31-19.95
			c14.17,0.42,27.06,4.21,38.97,11.78c1.23,0.78,2.42,3.09,4.2,1.67c1.71-1.36,2.18-3.74,2.1-5.87c-0.09-2.33-2.36-2.99-4.04-4
			c-18.64-11.13-39.26-15.74-60.53-17.3c-21.73-1.59-43.03,1.22-63.38,9.45c-6.41,2.59-12.6,5.14-17.35,11
			C-156.7,549.06-164.58,581.27-165.78,615.84z M52.66,581.78c-0.54,5.88-1.07,11.77-1.63,17.65c-0.94,9.86-2.12,19.7-2.76,29.58
			c-0.51,7.9-1.38,15.99,3.06,23.29c0.9,1.48,2.25,3.01,3.88,2.73c1.84-0.32,1.74-2.42,1.83-4.04c0.73-13.51,2.65-26.9,1.23-40.58
			C57.27,600.68,56.14,591.09,52.66,581.78z"/>
		<path class="st2" d="M699.44,421.82c26.59-0.03,53.68,4.89,78.89,17.44c34.7,17.28,57.9,44.88,70.46,81.47
			c1.67,4.85,2.79,9.89,4.48,14.73c1.03,2.95,0.62,4.84-2.05,6.73c-10.72,7.56-21.17,15.5-31.97,22.92
			c-4.97,3.42-11.25,3.56-16.96,5.07c-13.74,3.64-27.55,7.03-41.27,10.73c-3.2,0.86-4.76,0.73-6.17-2.87
			c-5.49-14.07-13.3-26.75-24.4-37.18c-13.94-13.1-30.68-19.79-49.53-22.07c-16.36-1.98-32.26-0.69-48.16,3.76
			c-8,2.24-13.34,6.64-17.42,13.55c-9.59,16.24-15.24,33.67-17.49,52.39c-1.33,11.07-2.38,22.12-1.79,33.23
			c1.34,25.25,6.04,49.68,20.07,71.33c14.68,22.65,35.51,36.2,62.15,40.83c21.95,3.81,43.12,1.86,63.44-7.8
			c4.79-2.28,8.61-5.21,10.12-10.3c3.59-12.14,12.8-20.34,20.37-29.69c3.03-3.74,6.26-7.31,9.25-11.09c2.5-3.16,5.07-4.39,9.4-3.21
			c19.14,5.22,38.35,10.18,57.63,14.87c4.47,1.09,5.85,2.24,4.59,7.15c-7.75,30.13-22.76,55.78-46.11,76.43
			c-2.48,2.19-5.08,4.37-7.96,5.96c-16.52,9.15-28.78,23.99-45.12,33.43c-16.58,9.58-34.29,15.85-53.05,19.05
			c-13.05,2.23-26.29,3.63-39.55,3.06c-43.13-1.85-81.84-14.97-113.96-44.97c-27.97-26.12-43.85-58.58-51.38-95.65
			c-3.48-17.11-5.28-34.43-4.8-51.78c1.14-41.31,10.15-80.45,34.54-114.86c6.15-8.68,12.8-16.95,20.97-23.84
			c7.85-6.61,13.01-15.48,19.8-23.01c14.23-15.77,30.86-28.19,49.86-37.48c20.15-9.86,41.38-15.66,63.81-17.46
			C686.07,422.21,692.01,422.08,699.44,421.82z M693.25,798.53c18.97-0.16,33.36-1.47,47.53-4.79
			c52.49-12.27,86.71-44.18,102.87-95.58c0.92-2.94,1.13-4.49-2.76-5.41c-15.21-3.61-30.33-7.6-45.43-11.69
			c-3.75-1.02-5.25-0.16-6.86,3.51c-9.16,21.01-22.66,38.35-43.68,48.73c-17.15,8.47-35.5,11.03-54.39,9.82
			c-43.4-2.8-74.31-24.19-90.46-64.42c-16.43-40.93-16.31-83.07-1.95-124.58c14.82-42.83,50.61-68.23,95.27-69.36
			c24.61-0.62,47.69,4.23,67.31,20.28c12.93,10.58,21.69,24.19,28.36,39.3c0.82,1.87,1.05,4.1,4.37,3.21
			c16.06-4.32,32.16-8.47,48.3-12.47c2.81-0.7,2.85-1.72,2.15-4.08c-11.53-38.4-33.94-67.91-70.61-85.35
			c-33.04-15.71-68.05-19.35-103.81-13.66c-61.71,9.82-105.04,43.79-128.28,101.94c-15.85,39.67-17.7,81.01-10.52,122.8
			c6.12,35.61,20.48,67.43,46.19,93.34C610.09,783.58,651.21,797.84,693.25,798.53z"/>
		<path class="st2" d="M-258.97,216.32c-0.69-27.47,3.64-54.13,13.32-79.84c8.05-21.38,19.26-40.99,35.78-56.92
			c13.32-12.85,23.64-28.34,37.46-40.73c21.63-19.38,46.66-31.97,74.73-38.84C-79.02-4.58-60-6.1-40.92-4.91
			C2.13-2.23,40.5,11.6,70.04,44.59c16.62,18.55,26.66,40.65,32.82,64.6c0.66,2.57,0.03,4.56-2.52,6.34
			c-10.35,7.21-20.41,14.83-30.73,22.08c-5.43,3.81-12.16,4.03-18.34,5.71c-13.56,3.67-27.23,6.95-40.78,10.67
			c-3.68,1.01-5.1,0.05-6.51-3.41c-7.49-18.37-18.35-34.29-35.21-45.33c-11.84-7.75-24.99-11.8-39.1-13.44
			c-18.46-2.15-36.29-0.46-53.78,5.92c-4.55,1.66-6.99,5.03-9.29,8.57c-11.12,17.11-17.34,35.97-19.58,56.22
			c-1,9.06-2.2,18.14-1.82,27.23c1.13,26.88,5.08,53.13,20.3,76.28c15.03,22.85,35.9,36.56,63.08,41.05
			c18.21,3.01,35.81,1.5,53.31-3.99c11.21-3.51,19.16-9.82,22.48-21.59c1.86-6.58,7.61-10.79,11.77-15.9
			c5.55-6.83,11.68-13.18,17.35-19.93c1.5-1.79,2.74-1.77,4.7-1.26c20.64,5.38,41.28,10.74,61.97,15.88
			c3.02,0.75,3.48,1.95,2.77,4.6c-6.58,24.53-16.81,47.09-34.24,66.05c-7.36,8.01-15.2,15.44-24.44,21.03
			c-9.62,5.81-17.63,13.48-26.28,20.43c-18.63,14.95-40.1,23.84-63.39,28.41c-13.66,2.68-27.53,4.38-41.44,3.99
			c-49.75-1.42-93.18-17.94-127.06-55.54c-20.66-22.93-33.25-50.18-39.91-80.18c-1.93-8.69-3.11-17.54-4.23-26.39
			C-259.15,233.88-258.65,225.1-258.97,216.32z M-223.82,186.97c-0.07,11.18,0.79,22.3,2.25,33.36c1.26,9.58,3.12,19.05,5.77,28.35
			c13.62,47.73,41.18,84.24,86.45,106.02c34.89,16.78,71.79,20.52,109.62,13.98c57.17-9.88,95.43-41.98,112.84-97.95
			c1.03-3.3,0.33-4.13-2.85-4.9c-15.35-3.76-30.66-7.68-45.9-11.85c-3.47-0.95-4.83-0.17-6.19,3.05
			c-7.07,16.67-17.05,31.25-31.91,42.01c-18.16,13.16-38.81,17.37-60.84,17.28c-45.09-0.19-81.49-24.97-97.3-67.21
			c-12.49-33.38-13.24-67.7-6.39-102.3c4.69-23.71,14.76-44.89,32.54-61.69c21.97-20.76,48.74-28.44,78.4-27.23
			c20.4,0.83,39.39,6.12,55.77,18.91c13.73,10.72,22.99,24.76,29.88,40.53c0.94,2.16,1.36,4.1,4.84,3.15
			c15.88-4.33,31.85-8.38,47.83-12.35c2.6-0.65,3.05-1.35,2.26-3.97C81.5,64.79,58.29,34.94,20.47,17.68
			C-12.28,2.74-46.82-0.46-82.07,5.09c-48.44,7.62-86.77,31.53-113.17,73.27C-216.19,111.48-223.39,148.38-223.82,186.97z"/>
		<path class="st2" d="M257.4-5.01C291.28-4.75,320.8,6.11,344.46,31c9.24,9.72,16.17,21.03,22.03,33.04
			c0.95,1.94,0.96,3.1-0.95,4.58c-27.46,21.28-56.32,40.51-85.9,58.71c-3.22,1.98-4.23,1.4-5.91-1.59
			c-6.33-11.23-13.67-21.65-24.96-28.61c-6.07-3.75-12.73-5.43-19.72-6.18c-2.94-0.31-4.12,0.69-4.11,3.86
			c0.04,11.68,5.34,20.71,13.89,28.04c14.44,12.37,31.68,19.98,48.61,28.07c25.39,12.13,50.8,24.3,70.33,45.39
			c15.2,16.41,23.58,35.77,24.28,58.37c0.59,19.08-1.25,37.74-8.28,55.66c-9.28,23.67-25.19,41.53-47.38,53.84
			c-2.32,1.28-4.73,2.33-6.59,4.38c-18.64,20.45-42.22,30.72-69.3,34.53c-28.4,4-55.62,0.69-81.05-12.56
			c-34.79-18.14-56.49-46.95-66.37-84.81c-0.78-3-0.25-5.08,1.97-7.47c6.11-6.56,12.1-13.27,17.59-20.35
			c6.55-8.44,15.99-12.78,24.55-18.34c13.37-8.69,27.01-16.95,40.44-25.55c2.98-1.9,4.06-1.74,5.04,1.94
			c4.61,17.29,11.3,33.69,22.35,47.97c12.27,15.86,28.11,25.03,48.59,24.9c3.46-0.02,6.93-0.55,10.36-1.08
			c2.7-0.42,3.65-1.9,4.21-4.96c2.91-15.79-3.02-27.87-14.68-37.86c-5.07-4.34-10.75-7.76-16.55-11.04
			c-15.79-8.92-32.69-15.59-48.78-23.9c-16.44-8.49-32.37-17.82-45.52-31.04c-17.18-17.26-26.15-38.11-27.83-62.59
			c-1.54-22.45,3.26-43.01,14.61-62.21c5.64-9.54,13.24-17.44,21.7-24.45c3.01-2.49,5.56-5.14,7.7-8.35
			c17.58-26.47,42.24-41.48,73.72-45.41c2.45-0.31,4.8-1.2,7.36-1C252.39-4.86,254.91-5.01,257.4-5.01z M186.69,244.03
			c-15.58,9.79-30.89,19.48-46.29,29.01c-2.55,1.58-1.47,3.44-0.99,5.19c8.71,31.21,26.09,56.28,53.52,73.83
			c29.22,18.7,61.26,23.04,94.94,17c30.05-5.39,54.67-19.54,70.93-46.11c11.91-19.46,16.01-41.04,15.8-63.56
			c-0.23-24.92-9.47-45.97-27.74-62.99c-12.17-11.33-26.21-19.87-40.84-27.56c-17.07-8.97-34.95-16.31-51.72-25.88
			c-12.35-7.05-24.28-14.65-31.71-27.39c-12.98-22.26-2.04-50.05,22.49-56.3c14.4-3.67,28.1-1.27,40.47,7.29
			c9.38,6.5,16.1,15.36,21.65,25.14c1.5,2.65,2.55,2.94,5.14,1.26c14.08-9.16,28.25-18.19,42.5-27.09c2.54-1.58,2.4-2.79,1.14-5.13
			c-25-46.33-69.2-62.37-112.31-57.07c-46.31,5.7-78.03,38.4-83,84.9c-3.44,32.14,6.06,60.16,30.71,82.21
			c16.21,14.5,35.32,24.18,54.73,33.46c16.78,8.02,34.06,15.12,49.12,26.37c13.71,10.24,20.39,23.4,18.92,40.9
			c-2.02,24.02-15.32,39.85-38.99,43.79c-28.84,4.79-51.47-5.77-68.43-29.23C197.55,273.39,191.61,259.16,186.69,244.03z"/>
		<path class="st2" d="M425.2,596.68c7.17,4.31,13.96,8.38,19.98,13.68c13.83,12.17,22.17,27.41,26.8,45.02
			c2.59,9.84,3.82,19.95,3.77,29.92c-0.14,28.04-5.78,54.72-24.22,77.1c-8.44,10.25-18.8,18.3-30.61,24.4
			c-2.25,1.16-4.28,2.52-5.98,4.4c-17.47,19.38-39.96,29.06-65.09,33.57c-13.24,2.38-26.67,2.92-40.07,2.98
			c-40.98,0.17-81.97,0-122.95,0.15c-4.34,0.02-5.93-0.81-5.93-5.64c0.15-119.44,0.12-238.89,0.08-358.33
			c0-2.77,0.46-5.01,2.43-7.23c8.6-9.69,17.03-19.51,25.37-29.42c1.24-1.47,2.52-1.35,3.94-1.35c47.31-0.02,94.64-0.64,141.94,0.23
			c24.68,0.45,48.21,6.76,68.14,22.68c15.67,12.52,25.05,28.93,30.07,48.12c2.61,9.98,3.9,20.24,3.91,30.41
			c0.02,21.2-5.17,40.99-18.98,57.84C434.29,589.47,429.77,592.6,425.2,596.68z M406.66,597.45c20.94-8.71,33.11-23.73,38.92-44.08
			c3.76-13.16,3.95-26.59,2.28-40.1c-3.68-29.78-16.86-53.36-44.28-67.5c-15.37-7.92-31.98-11.52-49.12-11.65
			c-44.15-0.34-88.3-0.12-132.45-0.34c-4.19-0.02-5.09,1.01-5.09,5.13c0.13,116.79,0.12,233.58,0.01,350.37c0,4,0.71,5.3,5.05,5.28
			c42.15-0.19,84.31-0.03,126.46-0.16c12.82-0.04,25.61-0.95,38.19-3.75c34.47-7.68,60.93-25.45,73.78-59.64
			c7.9-21,9.08-42.81,5.62-64.92c-4.92-31.43-21.99-53.22-51.5-65.22C412.26,599.94,410.02,598.91,406.66,597.45z"/>
		<path class="st1" d="M721.01,43.04c1.41-2.36,2.81-4.72,4.38-7.35c5.2,5.31,8.19,11.05,6.85,18.46c-0.23,1.28-0.1,2.62-0.14,3.93
			c-0.82,1.97-1.56,3.98-2.47,5.91c-0.58,1.22-1.26,2.18,0.04,3.49c3.28,3.32,6.42,6.78,9.61,10.18c0.39-0.21,0.78-0.43,1.16-0.64
			c-1.63-5.69,0.41-10.72,2.39-15.75c2.46-1.16,2.99-4.16,5.27-5.49c5.18,5.4,6.47,12.5,3.67,20.42c-0.65,1.85-1.39,3.67-2.09,5.51
			c0,0,0.01,0.04,0.01,0.04c-0.75,0.14-0.84,0.65-0.7,1.28c-0.95,1.35-3.06,2.35-1.73,4.47c2.67,4.24,5.45,8.41,8.19,12.6
			c-0.35-6.41,2.46-11.33,6-16c0.14-0.08,0.29-0.15,0.43-0.25c2.09-1.43,3.72-5.15,6-4.22c2.43,0.99,2.24,4.86,2.61,7.57
			c1.1,8.08-2.88,14.28-7.92,19.97c-1.3,1.47-3.24,2.64-1.17,4.85c1.66,4.19,3.33,8.39,5.34,13.47c1.37-7.12,4.53-12.33,9.5-16.4
			c7.89-4.28,7.65-4.28,7.86,4.94c0.16,7.18-4.45,11.71-8.18,16.83c-0.65,0.07-1.01,0.44-1.09,1.09c0,0,0.03-0.16,0.03-0.16
			c-1.66,1.56-5.18,1.78-4.69,4.82c0.76,4.71,2.21,9.31,3.36,13.96c2.07-6.73,7.03-10.42,12.46-13.71c8.37-2.65,8.72-2.25,6.91,6.83
			c-1.06,5.3-4.72,8.84-8,12.68c-2.73,1.57-5.43,3.18-8.19,4.7c-1.08,0.59-1.91,1.08-1.76,2.59c0.45,4.46,0.73,8.94,1.09,13.4
			c2.47-5.01,6.94-7.36,11-10.13c1.92-0.41,3.85-0.82,5.77-1.24c1.71-0.37,3.81-1.8,5.03-0.19c1.01,1.33-0.07,3.44-0.49,5.21
			c-1.16,4.85-4.07,8.57-7.46,12c-0.65,0.13-1.25,0.3-1.11,1.18c0,0-0.06-0.3-0.06-0.3c-3.77,1.68-7.27,3.96-11.38,4.84
			c-1.17,0.25-2.23,0.69-2.28,2.17c-0.15,4.12-0.95,8.16-2.3,13.39c3.55-2.91,6.04-4.95,8.53-6.98c4.37-0.8,8.59-2.21,13.15-2.32
			c4.03-0.1,3.93,1.21,2.66,4.26c-1.7,4.06-4.41,7.32-7.21,10.58c-0.6,0.27-1.49,0.3-1.13,1.36l0.12-0.29c0,0-0.28-0.14-0.28-0.14
			c-5.23,1.98-10.32,4.51-16.11,4.42c-1.51-0.03-2,0.82-2.33,2.02c-1.11,3.93-2.23,7.86-3.78,13.29c4.81-5.37,10.03-6.54,15.43-7.23
			c2.64,1.15,5.48,0.51,8.22,0.91c2.54,0.37,3.17,1.43,1.71,3.5c-1.88,2.67-3.89,5.25-5.85,7.88c-0.68,0.32-1.72,0.37-1.21,1.59
			l0.09-0.28c0,0-0.28-0.09-0.28-0.09c-6.41,2.93-13.08,4.66-20.18,3.85c-1.83-0.21-2.72,0.41-3.49,1.95
			c-1.76,3.53-3.65,6.99-5.49,10.48c6.25-3.78,12.8-3.45,19.43-2.53c2.53,1,5.06,2,7.6,3c-0.83,2.74-3.28,3.94-4.44,6.09
			c-7.65,6.72-16.59,6.71-25.86,4.95c-1.69-0.32-3.4-1.49-4.9,0.62c-2.38,3.34-4.93,6.55-7.41,9.81c8.23-3.52,15.74-0.8,23.23,2.04
			c4.16,3.3,4.16,3.3-1.6,8.54c-8.91,5.13-17.86,3.81-26.88,0.26c-1.27-0.5-2.57-2.25-3.99-1.05c-3.39,2.89-6.55,6.04-10.69,9.91
			c5.18-0.9,8.99-1.23,12.76-0.21c5.08,1.37,9.05,4.76,13.41,7.45c0.93,1.51,1.22,2.68-0.82,3.76c-1.5,0.8-3.42,1.04-4.42,2.68
			c-10.16,3.46-19.19,0.63-27.77-4.93c-0.99-0.64-1.88-2.23-3.44-1.22c-3.58,2.32-7.12,4.72-11.76,7.82
			c12.52-1.18,19.31,5.55,25.64,13.11c-1.43,3.41-5.49,1.95-7.59,4.11c-10.78,1.44-19.37-3.02-26.88-10.17
			c-1.23-1.17-2.22-1.7-3.88-0.93c-3.46,1.59-7,3.01-11.46,4.91c11.35,0.87,17.05,7.79,22.05,15.77c1.4,2.24,0.72,3.36-1.31,4.31
			c-2.18-0.92-4.28,0.09-6.42,0.24c-11.01-0.16-18.37-6.47-24.67-14.6c-0.94-1.22-1.32-2.98-3.68-2.45
			c-9.67,2.18-19.24,4.59-28.51,9.09c4.15,2.56,7.93,4.9,11.71,7.24c2.2,1.88,4.44,3.7,6.57,5.66c1.08,1,2.84,1.81,1.82,3.86
			c-3.12,3.79-5.79,3.66-9.22-0.09c-4.4-4.8-10.1-8.09-15.65-11.49c-2.07-1.27-3.68-1.37-5.84-0.06
			c-6.28,3.81-12.58,7.7-17.51,13.13c-3.29,3.62-4.56,0.68-6.54-0.87c-3.12-2.45-0.19-3.61,1.17-4.87
			c5.29-4.88,11.49-8.52,18.02-12.55c-8.65-4.04-17.13-6.3-25.68-8.47c-3.43-0.87-5.21-0.14-7.3,2.69
			c-8.97,12.14-19.68,16-32.93,12.06c4.83-9.61,10.96-17.36,23.32-18.77c-2.64-1.07-4.6-1.58-6.25-2.58
			c-4.84-2.95-8.45-2.18-12.81,1.77c-8.08,7.32-17.67,9.4-28.29,5.33c-2.96-1.13-2.73-2.03-0.96-4.03
			c6.12-6.9,12.84-12.53,24.35-11.36c-4.91-3.18-8.35-6.48-12.41-7.61c-2.18-0.61-5.36,2.6-8.16,3.93
			c-1.94,0.93-3.99,1.66-6.03,2.37c-8.67,3-16.15,0.33-23.63-4.65c7.97-7.27,16.09-12.22,27.11-9.84c-2.33-2.64-4.93-4.63-7.05-7.05
			c-2.16-2.46-3.87-2.75-7.06-1.37c-10.18,4.4-20.26,4.96-29.62-2.59c-2.97-2.4-2.92-3.5,0.54-5.33c7.7-4.06,15.51-5.98,25.01-2
			c-2.83-3.61-4.99-5.94-6.65-8.59c-1.86-2.97-3.88-3.41-7.33-2.67c-10.68,2.28-20.52,0.9-28.04-8.23
			c-1.94-2.35-1.74-3.34,1.23-4.28c8.12-2.59,16.1-3.77,24.93,2.18c-2.13-4.11-3.74-6.76-4.92-9.6c-1.29-3.13-2.91-4.2-6.66-4.04
			c-10.75,0.47-20.06-2.72-25.57-13c-0.88-1.64-1.74-2.98,1.14-3.41c8.21-1.24,16.21-1.65,22.9,4.71c0.84-3.43-1.11-6.22-1.65-9.26
			c-0.54-3.03-1.59-4.5-5.32-4.8c-12.91-1.03-20.62-7.8-23.46-19.89c9.44-0.45,18.1,0.77,24.9,9.68c-0.54-4.47-1.15-7.75-1.28-11.04
			c-0.12-3.34-1.59-4.69-4.8-5.69c-9.4-2.94-16.37-8.43-18.63-18.83c-0.95-4.38,0.74-4.44,3.9-3.72c7.6,1.75,14.35,4.77,18.34,12.39
			c0.5-3.85,0.15-7.5,0.6-11.06c0.42-3.3-0.43-4.97-3.5-6.52c-9.03-4.56-15.04-11.36-14.99-22.25c0.01-2.96,0.97-3.46,3.46-2.46
			c7.62,3.05,14.16,7.18,16.32,17.34c1.34-5.73,2.16-10.13,3.45-14.4c0.71-2.35,0.03-3.45-1.81-4.78
			c-7.01-5.08-12.02-11.45-12.34-20.59l0.29-0.36c0,0-0.29-0.36-0.29-0.36c0.66-2.12,0.33-4.53,1.83-6.79
			c8.47,4.69,15.5,10.09,15.23,22.01c2.33-5.64,4.07-10.26,6.16-14.71c1.02-2.17,0.72-3.38-0.99-5.11
			c-5.58-5.63-8.99-12.31-8.44-20.54c0.25-1.11,1.17-2.17,0.25-3.37c1.69-1.07,1.06-3.39,2.5-4.59c7.67,4.25,11.04,9.88,12.55,21.38
			c2.57-4.04,4.79-7.89,7.38-11.45c1.38-1.9,1.47-3.16,0.13-5.16c-4.42-6.56-6.68-13.69-4.6-21.68c1.37-1.21,1.78-2.85,1.99-4.57
			c1.59-2.13,2.81-2.4,4.68,0.06c4.39,5.78,7.21,11.94,5.96,18.67c2.96-2.54,5.95-5.34,9.2-7.8c2-1.51,2.05-2.74,1.05-4.94
			c-2.99-6.5-4.08-13.25-1.52-20.22c2.27-2.34,2.92-6.1,6.44-7.32c4.14,7.05,7.01,14.29,3.42,22.51c-0.16,0.47-0.86,0.98,0.02,1.35
			c0.16,0.07,0.57-0.46,0.86-0.72c3.35-2.4,6.6-4.98,10.1-7.13c2.26-1.38,2.56-2.78,1.93-5.22c-1.76-6.76-1.75-13.45,1.98-19.72
			c2.68-1.85,3.83-5.7,7.74-5.95c2.44,7.71,4.03,15.39-1.02,22.76c-0.5,0.16-0.93,0.45-0.61,0.98c0.09,0.15,0.79-0.07,1.2-0.12
			c3.85-1.94,7.64-4.01,11.57-5.78c2.07-0.93,2.97-1.87,2.69-4.39c-0.79-7.15,0.58-13.86,5.41-19.52c2.58-1.03,4.29-3.57,7.33-4.2
			c2.37,5.35,1.11,10.78,0.45,16.19c-3.36,3.26-4.97,7.89-9.54,11.57c8.67-1.75,14.51,1.8,19.62,7.1c0.89,1.66,1.78,3.33,2.67,4.98
			c-2.21,2.27-5.41,0.8-7.78,2.26c-7.72-0.42-13.32-4.58-18.13-10.2c-0.85-0.99-1.3-2.93-3.41-1.83c-4.8,2.52-9.74,4.79-13.97,8.72
			c8.44-2.24,15.02,0.84,20.89,6.39c2.48,2.35,2.6,3.59-0.93,4.95c-9.25,3.58-16.99,0.6-23.98-5.29c-2.22-1.86-3.63-2.04-5.8-0.15
			c-3.62,3.15-7.48,6.02-11.24,9c9.84-3.17,18-0.63,25.36,6.02c-8.14,7.13-17.01,7.97-27.32,1.89c-3.45-2.04-5.16-1.35-7.32,1.23
			c-2.86,3.41-5.89,6.68-8.84,10.02c9.24-4.39,18.09-3.94,26.9,1.83c-1.06,1.29-1.98,2.41-2.91,3.53c-1.12,0.03-1.73,0.75-2.22,1.63
			c-7.61,4.62-15.49,3.91-23.43,1.09c-1.58-0.56-2.94-1.53-4.15,0.64c-2.44,4.38-5.02,8.68-7.55,13.01
			c8.5-6.32,17.19-5.7,26.16-2.35c-1.65,2.35-3.31,4.69-4.96,7.04c-0.36,0.31-0.71,0.61-1.07,0.92c0,0,0.08-0.12,0.08-0.12
			c-0.62,0.09-1.14,0.29-1.13,1.05c0,0-0.05-0.25-0.05-0.25c-6.36,3.84-13.3,3.68-20.3,2.84c-1.29-0.15-2.58-1-3.28,0.87
			c-1.68,4.43-3.89,8.69-4.86,14.85c6.85-7.95,14.89-8.7,23.37-7.93c1.53,0.85,1.1,1.81,0.52,3.18c-1.49,3.51-4.23,6.07-6.39,9.07
			c-0.52,0.34-1.62,0.22-1.1,1.38l0.18-0.26c0,0-0.26-0.19-0.26-0.18c-3.45,1.09-6.91,2.17-10.37,3.25
			c-3.04,0.95-7.3-1.08-9.12,1.69c-1.77,2.71-1.69,6.64-2.34,10.06c-0.37,1.9-0.58,3.83-0.86,5.75c4.12-7.73,11.18-10.5,19.06-11.98
			c5.81,0.34,5.83,0.48,3.67,6.11c-1.46,3.79-4.23,6.57-6.74,9.57c-0.61,0.06-1.19,0.16-1.12,0.99c0,0-0.04-0.28-0.04-0.28
			c-4.39,1.96-8.73,4.09-13.6,4.64c-1.47,0.17-2.44,0.7-2.41,2.47c0.08,4.92-0.73,9.86,0.59,16.09c1.93-8.57,7.42-12.58,13.65-15.88
			c0.17,0.01,0.34,0.05,0.5,0.03c8.39-1.51,9.02-0.68,6.3,7.65c-1.33,4.09-4.19,7.02-6.91,10.11c-4.11,2.46-9.95,3.59-12.37,6.71
			c-2.72,3.5,0.84,9.4,1.53,14.27c0.02,0.17,0.36,0.3,1.19,0.96c0.45-8.76,6.04-13.52,12.42-17.67c1.95-0.68,3.91-1.35,6.08-2.1
			c1.48,7.85-0.17,14.72-4.83,20.92c-3.4,2.6-6.32,5.85-10.26,7.71c-1.25,0.59-1.81,1.32-1.3,2.71c1.58,4.33,2.54,8.93,5.39,12.86
			c-0.99-8.1,3.2-13.74,8.39-18.93c2.63-0.79,4.67-5.09,6.93-3.48c2.22,1.58,1.66,5.72,1.91,8.85c0.36,4.51-1.85,8.26-3.08,12.3
			c-2.94,3.06-5.16,6.81-8.74,9.24c-1.93,1.31-1.31,2.57-0.41,4.14c1.94,3.39,3.74,6.86,5.61,10.29c0.27-0.01,0.64-0.13,0.75-0.01
			c0.41,0.45,0.62,0.36,0.35-0.15c-0.37-0.69-0.76,0.08-1.15,0.15c0.93-6.79,1.01-13.84,5.82-19.47c0.71-0.67,1.45-1.32,2.12-2.02
			c4.92-5.16,5.34-5.01,7.54,1.99c1.64,5.24,1.27,10.4-0.15,15.57c-2.15,4.1-5.52,7.77-7.05,11.85c-1.79,4.76,4.73,6.95,6.5,10.97
			c0.02,0.05,0.25,0.01,0.95,0.01c-1.25-6.82-0.18-13.34,2.78-19.54c2.34-1.63,2.78-4.85,5.58-6.53c5.4,6.15,7.23,13.33,6.45,21.35
			c-0.81,2.35-1.84,4.65-2.36,7.05c-0.61,2.8-4.48,4.89-2.67,7.86c1.48,2.44,4.34,4.05,6.62,5.98c0.61,0.51,1.35,0.87,3.17,2.03
			c-3.61-7.37-3.03-13.87-1.3-20.39c1.25-2.49,2.5-4.97,3.92-7.81c6.7,4.9,9.7,11.48,10.58,19.26c-0.34,2.77-0.93,5.54-0.95,8.31
			c-0.02,3.1-4.03,6.09-1.06,8.97c2.4,2.33,5.53,4.1,8.86,5.2c0.2,0.45,0.53,0.89,0.98,0.46c0.18-0.17-0.07-0.8-0.13-1.22
			c-4.58-6.16-4.64-13.18-3.86-20.35c0.1-0.13,0.24-0.25,0.29-0.4c2.74-8.02,2.66-7.93,8.91-1.93c3.31,3.17,5.19,7.1,7.01,11.13
			c0.51,5.6,1.19,11.2-0.11,16.78c-0.3,1.28-0.09,2.3,1.27,2.78c3.55,1.26,6.92,3.17,11.21,3.46c-7.12-8.26-7.34-8.83-8.58-21.9
			c0.81-2.15,0.22-4.63,1.6-6.76c12.1,4.15,17.42,13.22,18.68,25.31c0.15,1.47,0.32,2.94,0.48,4.4c-0.59,1.91,0.73,2.3,2.1,2.58
			c9.97,2.05,19.59,5.18,28.91,9.23c1.32,0.57,2.45,0.6,3.78,0.02c3.63-1.61,7.32-3.1,10.98-4.64c0.6-0.18,1.19-0.36,1.79-0.54
			c5.13-1.3,10.24-2.69,15.4-3.85c2.13-0.48,2.92-1.34,2.97-3.65c0.26-11.15,3.74-20.77,13.71-27.05c0,0,0.07,0.14,0.07,0.14
			c1.94-0.39,3.37-2.16,5.92-2.03c1.23,9.06,1.49,17.85-4.86,25.49c-0.68,0.82-1.91,2.63-0.36,2.5c3.02-0.25,5.99-1.67,8.88-2.83
			c2.63-1.06,0.94-3.12,0.74-4.73c-1.44-11.61,0.66-21.81,10.84-29.19c2.86-2.07,3.76-1.42,4.51,1.64
			c2.12,8.66,2.61,17.08-2.95,24.81c-0.49,0.13-0.9,0.42-0.61,0.93c0.08,0.13,0.75-0.07,1.15-0.12c1.76-0.94,3.45-2.02,5.28-2.79
			c4.52-1.92,5.55-4.44,3.87-9.51c-3.33-10.07-2.07-19.69,5.84-27.75c2.27-2.32,3.39-2.47,4.71,0.69
			c3.36,8.08,5.91,16.14,0.63,25.08c3.33-0.9,4.71-3.16,6.73-4.47c3.55-2.29,4.17-4.53,1.92-8.74c-6.27-11.73-4.94-22.06,2.97-30.96
			c7.17,7.43,9.22,13.98,7.92,26.4c3.84-2.74,6.56-5.97,8.31-9.51c1.14-2.31-2.28-3.95-3.56-5.93c-5.53-8.55-7.4-17.38-2.87-26.92
			c0.5-1.06,0.71-3.6,2.88-1.62c5.11,4.68,9.1,10.02,10.66,17.06c0.48,2.17-2.72,5.23,0.32,5.89c2.18,0.47,2.77-3.59,4.25-5.51
			c0.2-0.26,0.31-0.6,0.52-0.85c2.45-2.93,2.08-5.01-1.02-7.64c-8.21-6.95-12.03-15.73-9.55-26.68c0.66-2.91,1.57-3.54,4.18-1.64
			c7.37,5.36,13.05,11.63,12.91,21.67c1.69-3.45,2.75-6.9,4.16-10.19c1.27-2.95,0.75-4.45-2.21-6.23
			c-8.72-5.25-14.63-12.45-14.25-23.46c0.12-3.57,0.74-4.92,4.48-2.98c7.38,3.84,13.66,8.49,14.93,18.15
			c2.54-3.67,2.1-7.33,3.09-10.57c1.05-3.43-0.1-4.72-3.44-5.94c-12.2-4.45-18.22-13.06-17.58-24.45
			c10.32,1.84,18.81,5.93,22.1,17.14c0.36-4.54,0.09-8.72,0.44-12.85c0.32-3.83-1.19-5.05-4.81-5.74
			c-12.59-2.41-19.13-8.98-20.91-20.46c4.58-0.37,8.88,0.68,13.14,2.12c4.58,1.55,7.48,5.1,10.59,9.45c0.43-4.6-1.01-8.04-1.37-11.6
			c-0.38-3.71-1.8-5.06-5.89-5.22c-12.84-0.5-19.95-5.69-23.34-16.31c9.18-1.59,17.55-0.77,24.66,6.43
			c-1.03-4.18-2.59-7.97-3.84-11.86c-0.86-2.68-2.02-3.21-4.96-2.79c-9.24,1.33-17.99,0.48-24.38-7.74
			c-2.09-2.68-2.87-4.2,1.48-5.11c7.7-1.61,15-1.84,21.94,4.83c-0.91-4.65-3.32-7.3-4.73-10.41c-1.94-4.27-4-5.51-9.04-3.68
			c-10.86,3.94-20.07,0.92-25.66-7.1c9.09-5.61,15.51-5.85,26.43-0.71c-2.48-4.54-5.88-7.66-8.82-11.16
			c-2.12-2.52-3.8-3.06-7.01-1.17c-8.54,5.02-18.95,6.77-27.46-1.92c7.19-6.12,15.07-9.15,24.72-5.62
			c-3.32-3.31-6.78-5.88-9.96-8.76c-2.55-2.31-4.29-2.28-7.05,0.06c-6.53,5.53-13.95,8.36-22.63,5.07
			c-4.81-1.82-4.84-2.02-1.19-5.55c5.24-5.07,11.42-7.53,19.02-6.97c-3.42-2.67-6.87-4.51-10.17-6.59c-2.69-1.7-4.29-1.41-6.48,1.24
			c-5.71,6.9-12.77,11.05-22.33,8.9c-2.97-0.67-3.73-1.35-1.78-4.06c5.02-6.97,11.24-11.33,20.45-10.1
			c-4.21-2.46-7.93-4.87-13.25-2.98c-6.86,2.44-14.73-1.15-18.72-7.56c9.69-3.98,14.03-3.26,21.57,3.91
			c1.32,1.25,2.63,1.91,4.35,1.98c0.71,0.74,1.66,1.27,2.37,0.38c0.46-0.58-0.59-0.93-1.06-1.31c-4.02-3.91-5.08-8.95-5.39-14.26
			c1.1-2.28-0.5-6.26,2.19-6.89c2.48-0.58,4.87,2.33,6.78,4.32c1.57,1.63,2.7,3.67,4.03,5.53c0.42,1.77,1.49,3.68,1.16,5.3
			c-2.2,10.56,4.74,14.26,12.61,17.37c0.46,0.18,0.95,0.28,1.42,0.42c0.34,0.63,0.81,1.01,1.43,0.44c0.11-0.11-0.29-0.76-0.45-1.16
			c-2.8-4.3-3.83-9-3.16-14.09c1.24-2.67,1.26-5.8,3.18-8.49c5.81,3.54,8.65,8.89,10.09,15.18c-0.32,3.94-0.26,7.93-1.55,11.74
			c-0.4,1.19-0.51,2.19,0.7,3.05c3.98,2.8,7.93,5.65,13.11,9.36C719.37,53.67,719.56,48.36,721.01,43.04z M770.66,156.47
			c-0.08-0.11-0.16-0.23-0.24-0.34c-0.1,0.1-0.26,0.19-0.27,0.29c-0.01,0.1,0.14,0.22,0.22,0.34
			C770.47,156.66,770.57,156.57,770.66,156.47z M764.7,130.39c-0.08-0.11-0.16-0.23-0.25-0.34c-0.1,0.09-0.28,0.18-0.29,0.29
			c-0.01,0.1,0.14,0.23,0.23,0.34C764.5,130.58,764.6,130.49,764.7,130.39z M740.37,78.49l0.19-0.24l-0.23-0.06L740.37,78.49z
			 M669.8,315.26c-0.13-0.13-0.24-0.24-0.36-0.36c-0.11,0.22-0.26,0.44-0.31,0.67c-0.02,0.08,0.2,0.22,0.31,0.33
			C669.56,315.69,669.68,315.47,669.8,315.26z"/>
		<path class="st1" d="M-123.83,186.46c0.65-10.9,0.97-22.39,3.83-33.59c6.05-23.62,25.59-34.59,49-27.31
			c17.17,5.33,28.85,17.28,37.77,32.31c5.29,8.9,8.91,18.55,12.19,28.33c2.76,8.26,7.72,11.11,16.12,8.74
			c25.89-7.31,52.06-13.66,77.59-22.27c17.53-5.91,20.76-4.52,30.48,11.29c4.79,7.79,9.9,15.39,15.66,22.51
			c4.81,5.95,5.7,10.6,2.73,15.39c-3.13,5.05-7.84,6.48-15.41,4.77c-26.58-6.03-53.17-12.05-79.75-18.05
			c-9.64-2.18-14.94-0.13-20.65,7.92c-3.87,5.44-6.56,11.55-9.76,17.37c-5.54,10.08-11.26,20.1-19.8,28
			c-18.63,17.23-46.26,18.08-67.33,2.17c-18.02-13.62-26.88-32.5-30.72-54.17C-123.22,202.32-123.67,194.68-123.83,186.46z"/>
		<path class="st1" d="M413.71,291.07c16.01,30.63,36.54,55.83,62.65,76.35c25.98,20.42,55.08,34.53,88.06,42.58
			c-9.33,7.24-17.75,14.37-25.75,21.98c-11.84,11.27-22.59,23.52-32.46,36.53c-3.16,4.17-6.76,7.04-12.18,5.99
			c-5.48-1.06-8.27-4.86-9.78-10.12c-13.75-47.71-44.98-77.57-92.77-90.34c-10.2-2.72-13.42-11.12-7-19.27
			C399.04,336.31,408.67,315.59,413.71,291.07z"/>
		<path class="st2" d="M462,112.82c0.32,9.13,5.33,15.51,12.34,20.59c1.84,1.33,2.52,2.43,1.81,4.78c-1.29,4.26-2.11,8.67-3.45,14.4
			c-2.16-10.15-8.7-14.29-16.32-17.34c-2.49-1-3.45-0.5-3.46,2.46c-0.05,10.89,5.96,17.69,14.99,22.25c3.07,1.55,3.92,3.22,3.5,6.52
			c-0.45,3.55-0.1,7.21-0.6,11.06c-3.99-7.62-10.74-10.64-18.34-12.39c-3.16-0.73-4.85-0.66-3.9,3.72
			c2.26,10.4,9.23,15.89,18.63,18.83c3.21,1.01,4.68,2.35,4.8,5.69c0.12,3.3,0.74,6.58,1.28,11.04c-6.81-8.91-15.46-10.12-24.9-9.68
			c2.84,12.09,10.55,18.86,23.46,19.89c3.73,0.3,4.77,1.77,5.32,4.8c0.55,3.04,2.5,5.83,1.65,9.26c-6.69-6.37-14.69-5.96-22.9-4.71
			c-2.88,0.44-2.02,1.77-1.14,3.41c5.51,10.28,14.82,13.47,25.57,13c3.75-0.16,5.36,0.91,6.66,4.04c1.17,2.83,2.78,5.48,4.92,9.6
			c-8.83-5.95-16.81-4.77-24.93-2.18c-2.97,0.95-3.17,1.93-1.23,4.28c7.52,9.13,17.36,10.51,28.04,8.23
			c3.46-0.74,5.47-0.3,7.33,2.67c1.66,2.65,3.82,4.99,6.65,8.59c-9.5-3.97-17.31-2.06-25.01,2c-3.47,1.83-3.52,2.92-0.54,5.33
			c9.35,7.55,19.43,6.99,29.62,2.59c3.19-1.38,4.9-1.09,7.06,1.37c2.12,2.42,4.72,4.41,7.05,7.05c-11.01-2.38-19.14,2.57-27.11,9.84
			c7.48,4.98,14.96,7.65,23.63,4.65c2.04-0.71,4.08-1.44,6.03-2.37c2.8-1.33,5.98-4.54,8.16-3.93c4.05,1.13,7.5,4.43,12.41,7.61
			c-11.51-1.17-18.23,4.47-24.35,11.36c-1.77,1.99-2,2.89,0.96,4.03c10.61,4.07,20.21,1.99,28.29-5.33
			c4.36-3.95,7.97-4.72,12.81-1.77c1.65,1.01,3.61,1.52,6.25,2.58c-12.36,1.41-18.49,9.16-23.32,18.77
			c13.25,3.94,23.96,0.08,32.93-12.06c2.09-2.83,3.88-3.57,7.3-2.69c8.55,2.18,17.03,4.43,25.68,8.47
			c-6.53,4.03-12.74,7.67-18.02,12.55c-1.36,1.26-4.29,2.42-1.17,4.87c1.98,1.55,3.25,4.49,6.54,0.87
			c4.93-5.42,11.22-9.32,17.51-13.13c2.16-1.31,3.77-1.21,5.84,0.06c5.55,3.4,11.25,6.69,15.65,11.49c3.43,3.75,6.11,3.88,9.22,0.09
			c0.5,0.44,1.02,0.86,1.49,1.33c3.94,3.87,3.98,3.96-1.17,6.41c-5.58,2.65-11.06,5.36-15.12,10.25c-2.08,2.51-3.71,2.33-5.81-0.52
			c-4.5-6.12-10.94-10.1-17.13-14.31c-1.98-1.35-3.57-0.85-5.47,0.26c-6.68,3.91-12.48,8.86-17.46,14.7
			c-1.93,2.26-2.96,2.1-4.9,0.08c-2.87-2.98-6.08-5.65-9.26-8.32c-1.98-1.67-2-2.91-0.09-4.76c4.28-4.15,8.31-8.55,13.76-12.24
			c-4.2-2.2-8.28-2.64-12.11-3.78c-2.35-0.7-3.65,1.02-5.03,2.49c-5.16,5.49-10.63,10.48-18.24,12.45
			c-8.58,2.22-16.73,0.53-25.12-2.46c1.32-4.03,2.94-7.9,5.93-12.19c-7.39,1.92-13.97,2.31-20.58,0.61
			c-4.39-1.13-10.28-2.26-11.74-5.59c-1.62-3.71,4.52-6.84,6.31-11.27c-11.02,2.42-20.13-1.52-28.56-7.88
			c-2.26-1.7-3.14-3.08-0.43-5.29c2.39-1.95,4.35-4.41,8.4-6.83c-13.99,0.01-23.1-6.17-30.54-15.81c3.48-2.45,6.93-4.88,11.19-7.89
			c-11.81-1.6-19.14-7.99-24.64-17.03c-1.38-2.28-2.01-3.58,1.24-4.62c2.93-0.94,5.66-2.53,9.34-4.24
			c-10.61-3.7-16.73-10.82-20.74-20.22c-1.41-3.31-0.81-4.46,2.52-5.38c2.68-0.74,5.66-0.49,8.59-2.59
			c-5.2-3.17-9.9-6.68-12.36-12.29c-0.07-0.15-0.19-0.27-0.27-0.42c-6.79-12.2-5.42-14.93,8.34-15.91
			c-0.94-2.36-3.06-3.52-4.55-5.18c-5.72-6.34-7.23-13.96-6.98-22.18c0.06-2.13,1.34-2.5,2.98-2.34c3.56,0.35,7.12,0.82,11.34,1.32
			c-3.67-4.71-7.25-8.73-8.53-14.3c-1.11-4.83-0.68-9.6-0.63-14.38c0.03-2.63,1.37-4.38,4.62-3.18c3.38,1.25,6.88,2.19,11.27,3.56
			c-4.52-6.26-7.44-12.33-7.07-19.57c0.21-4.21,1.59-8.09,2.55-12.1c0.54-2.24,1.73-2.08,3.67-1.5
			C454.49,108.12,457.68,111.58,462,112.82z"/>
		<path class="st2" d="M692.86,304.84c5.56-7.73,5.07-16.14,2.95-24.81c-0.75-3.06-1.65-3.72-4.51-1.64
			c-10.17,7.38-12.27,17.57-10.84,29.19c0.2,1.61,1.88,3.68-0.74,4.73c-2.9,1.16-5.86,2.58-8.88,2.83c-1.55,0.13-0.32-1.68,0.36-2.5
			c6.35-7.64,6.09-16.43,4.86-25.49c-2.55-0.13-3.98,1.64-5.92,2.03c-0.82-2.01,0.46-3.1,1.83-4.12c4.17-3.12,7.78-7.19,13.5-7.67
			c0.61-0.05,1.23-1.01,1.71-1.64c3.87-5.11,7.59-10.34,14.13-12.48c0.65-0.21,0.88-1.64,1.36-2.47
			c3.01-5.27,5.25-11.17,11.29-13.99c0.96-0.45,0.78-1.32,1-2.08c1.8-5.98,3.67-11.84,8.33-16.5c1.36-1.36,1.24-4.3,1.59-6.54
			c0.71-4.59,1.47-9.16,4.86-12.68c0.75-0.78,0.45-1.37,0.44-2.17c-0.04-6.3-1.55-12.83,2.96-18.47c0.46-0.57-0.27-2.19-0.59-3.27
			c-1.09-3.67-2.76-7.68-1.46-11.18c3.18-8.56-3.34-15.23-3.65-23.02c-0.06-1.56-1.34-3.05,1.15-4.03c1.61-0.64,0.08-1.57-0.45-2.14
			c-2.51-2.72-3.9-6.19-6.06-9.08c-2.81-3.77-0.09-9.05-3.43-12.13c-3.5-3.22-6.37-6.75-8.51-10.89c-0.76-1.48-3.09-2.66-0.88-5.11
			c1.32-1.46-1.1-1.49-1.88-1.96c-4.46-2.67-8.6-5.67-11.51-10.1c-0.36-0.55-1.32-1.14-1.22-1.5c1.45-5.51-3.78-4.31-6.02-6.03
			c-4.12-3.15-10.35-3.92-11.38-10.54c-0.16-1-1.82-1.32-3.01-1.34c-5.25-0.08-10.59-1.85-13.47-5.54
			c-3.63-4.65-8.21-3.56-12.38-4.38c-10.91-2.15-11.67-3.1-5.76-12.18c2.24-3.45,2.42-5.11-1.79-6.68
			c-5.15-1.93-8.59-6.11-11.86-10.38c-1.22-1.6-1.5-2.62,0.45-3.88c5.45-3.51,10.79-7.18,16.19-10.77c0.55-0.37,1.35-1.02,1.74-0.86
			c7.02,3.02,6.11-3.06,6.92-6.36c0.96-3.9,2.5-4.37,5.73-2.45c3.41,2.03,6.99,3.76,10.49,5.62c0.32,5.31,1.37,10.35,5.39,14.26
			c-0.44,0.31-0.88,0.62-1.31,0.93c-1.72-0.07-3.02-0.72-4.35-1.98c-7.54-7.17-11.88-7.88-21.57-3.91c3.99,6.41,11.86,10,18.72,7.56
			c5.32-1.89,9.04,0.51,13.25,2.98c-9.21-1.23-15.43,3.13-20.45,10.1c-1.95,2.71-1.19,3.39,1.78,4.06c9.56,2.14,16.62-2,22.33-8.9
			c2.19-2.65,3.79-2.93,6.48-1.24c3.3,2.08,6.75,3.92,10.17,6.59c-7.6-0.56-13.77,1.91-19.02,6.97c-3.65,3.53-3.62,3.73,1.19,5.55
			c8.68,3.28,16.1,0.45,22.63-5.07c2.77-2.34,4.51-2.37,7.05-0.06c3.18,2.88,6.64,5.45,9.96,8.76c-9.65-3.53-17.53-0.49-24.72,5.62
			c8.51,8.69,18.92,6.95,27.46,1.92c3.21-1.89,4.89-1.35,7.01,1.17c2.94,3.5,6.34,6.62,8.82,11.16c-10.92-5.15-17.35-4.9-26.43,0.71
			c5.59,8.02,14.8,11.04,25.66,7.1c5.03-1.83,7.1-0.59,9.04,3.68c1.41,3.1,3.82,5.76,4.73,10.41c-6.94-6.67-14.24-6.44-21.94-4.83
			c-4.35,0.91-3.56,2.42-1.48,5.11c6.39,8.22,15.14,9.07,24.38,7.74c2.94-0.42,4.1,0.12,4.96,2.79c1.25,3.89,2.81,7.68,3.84,11.86
			c-7.11-7.2-15.48-8.03-24.66-6.43c3.38,10.63,10.5,15.82,23.34,16.31c4.09,0.16,5.51,1.51,5.89,5.22c0.37,3.56,1.8,7,1.37,11.6
			c-3.11-4.36-6.01-7.9-10.59-9.45c-4.27-1.44-8.56-2.5-13.14-2.12c1.78,11.48,8.32,18.05,20.91,20.46c3.63,0.7,5.13,1.92,4.81,5.74
			c-0.35,4.13-0.08,8.31-0.44,12.85c-3.28-11.21-11.78-15.3-22.1-17.14c-0.64,11.4,5.38,20.01,17.58,24.45
			c3.35,1.22,4.5,2.5,3.44,5.94c-0.99,3.24-0.56,6.89-3.09,10.57c-1.27-9.66-7.55-14.31-14.93-18.15c-3.74-1.94-4.36-0.59-4.48,2.98
			c-0.38,11.01,5.53,18.22,14.25,23.46c2.96,1.78,3.48,3.29,2.21,6.23c-1.42,3.29-2.48,6.74-4.16,10.19
			c0.14-10.04-5.55-16.31-12.91-21.67c-2.61-1.9-3.52-1.27-4.18,1.64c-2.48,10.96,1.35,19.74,9.55,26.68
			c3.1,2.62,3.47,4.71,1.02,7.64c-0.21,0.25-0.32,0.59-0.52,0.85c-1.47,1.91-2.07,5.98-4.25,5.51c-3.04-0.65,0.17-3.71-0.32-5.89
			c-1.56-7.04-5.55-12.38-10.66-17.06c-2.16-1.98-2.37,0.56-2.88,1.62c-4.52,9.54-2.65,18.38,2.87,26.92
			c1.28,1.98,4.7,3.62,3.56,5.93c-1.75,3.54-4.47,6.77-8.31,9.51c1.29-12.42-0.75-18.98-7.92-26.4c-7.91,8.91-9.25,19.23-2.97,30.96
			c2.25,4.21,1.63,6.44-1.92,8.74c-2.02,1.31-3.4,3.57-6.73,4.47c5.28-8.94,2.73-17-0.63-25.08c-1.32-3.17-2.43-3.01-4.71-0.69
			c-7.91,8.07-9.17,17.68-5.84,27.75c1.68,5.07,0.65,7.59-3.87,9.51c-1.83,0.77-3.52,1.85-5.28,2.79
			C693.26,305.36,693.08,305.09,692.86,304.84z"/>
		<path class="st1" d="M581.04,103.87c13.96,0.12,27.92,0.17,41.88,0.37c7.48,0.11,14.93,0.64,22.16,2.78
			c16.66,4.93,25.07,17.68,21.96,33.31c-1.46,7.32-6.1,12.28-11.83,16.62c-5.48,4.14-5.37,4.33,0.99,6.86
			c28.58,11.38,33.13,44.91,8.74,64.43c-1.03,0.82-2.03,1.67-3.04,2.51c-9.89,6.04-20.71,8.96-32.22,9.14
			c-16.46,0.26-32.92,0.26-49.38,0.35c-1.4,0.01-2.8-0.13-5.45-0.26c7.24-4.09,9.01-9.92,9.4-16.43c0.19-3.15,0.35-6.3,0.36-9.46
			c0.03-27.95,0.07-55.89-0.01-83.84c-0.03-9.49,1.01-19.44-9.5-25.91C577.79,104.13,579.42,104,581.04,103.87z M606.14,129.03
			c-0.06,8.96-0.1,17.92-0.21,26.87c-0.02,1.83,0.04,3.18,2.54,3.08c5.42-0.22,10.9,0.38,16.14-1.57c3.01-0.33,5.83-1.35,8.52-2.65
			c7.49-3.63,12.16-9.28,11.78-17.99c-0.39-8.75-5.24-14.46-13.13-17.71c-5.07-2.09-10.34-1.82-15.7-1.3
			C605.53,118.79,605.51,118.65,606.14,129.03z M634.96,224.55c13.97-2.62,21.36-10.31,22.5-23.41c1.01-11.58-5.94-21.68-18.13-26.3
			c-7.47-2.83-15.2-3.28-23.1-2.62c-10.75,0.89-10.76,0.77-10.08,11.75c-0.06,12.13-0.14,24.26-0.18,36.4c0,1.4-0.48,3.32,1.81,3.39
			C616.84,224.02,625.83,226.66,634.96,224.55z"/>
		<path class="st2" d="M581.04,103.87c-1.63,0.13-3.26,0.26-5.95,0.47c10.51,6.47,9.48,16.42,9.5,25.91
			c0.08,27.95,0.04,55.89,0.01,83.84c0,3.15-0.17,6.31-0.36,9.46c-0.39,6.5-2.15,12.34-9.4,16.43c2.65,0.13,4.05,0.27,5.45,0.26
			c16.46-0.09,32.92-0.09,49.38-0.35c11.5-0.18,22.33-3.1,32.22-9.14c-1.14,4.82-5.24,7.19-8.7,9.81
			c-9.97,7.55-21.69,10.86-33.92,11.22c-18.63,0.56-37.29,0.2-55.94,0.15c-1.6,0-4.02,0.98-4.31-1.92
			c-0.23-2.24-0.74-4.67,2.32-5.78c4.1-1.49,5.64-5.13,6.33-8.93c0.74-4.05,1.15-8.21,1.16-12.33c0.1-27.63-0.03-55.27,0.13-82.9
			c0.03-4.85-0.6-9.59-1.2-14.33c-0.48-3.81-2.34-7.12-6.34-8.9c-3.3-1.46-3.62-4.84-0.68-6.99c4.29-3.13,8.74-6.07,13.28-8.83
			C577.4,98.98,578.96,102.28,581.04,103.87z"/>
		<path class="st1" d="M143.51,424.84c0.81,6.54-0.92,11.31-6.44,13.94c-5.37,2.56-9.79,0.64-14-3.19
			c-17.33-15.75-38.34-24.74-60.14-32.18c-4.13-1.41-7.48-3.43-9.05-7.78c-1.5-4.18-0.86-8.04,2.13-11.12
			c6.01-6.21,12.09-12.37,18.52-18.13c5.84-5.24,9.24-4.63,13.78,2.05c4.67,6.88,9.45,13.62,14.8,20.01
			c9.38,11.21,21.63,18.51,33.92,25.82C141.33,416.85,145.37,419.46,143.51,424.84z"/>
		<path class="st2" d="M529.14,89.03c0.92-1.12,1.85-2.24,2.91-3.53c-8.81-5.77-17.66-6.22-26.9-1.83c2.96-3.33,5.98-6.6,8.84-10.02
			c2.17-2.59,3.87-3.27,7.32-1.23c10.31,6.09,19.17,5.24,27.32-1.89c-7.36-6.65-15.52-9.19-25.36-6.02c3.76-2.99,7.62-5.86,11.24-9
			c2.18-1.89,3.59-1.72,5.8,0.15c6.99,5.88,14.73,8.86,23.98,5.29c3.53-1.36,3.41-2.6,0.93-4.95c-5.87-5.55-12.45-8.63-20.89-6.39
			c4.23-3.93,9.17-6.2,13.97-8.72c2.11-1.11,2.56,0.84,3.41,1.83c4.82,5.61,10.41,9.77,18.13,10.2c-0.49,1.83,0.67,3.2,1.43,4.61
			c2.78,5.16,2.86,5.26-2.9,7.07c-3.29,1.03-6.7,1.82-10.12,2.29c-2.28,0.32-3.78,0.42-5.66,2.66c-2.9,3.45-7.71,5.09-12.25,6.09
			c-3.04,0.67-4.73,1.7-6.79,4.51C540.25,84.64,535.21,88.11,529.14,89.03z"/>
		<path class="st2" d="M642.76,340.4c-3.78-2.34-7.56-4.67-11.71-7.24c9.27-4.5,18.85-6.91,28.51-9.09
			c2.37-0.54,2.74,1.23,3.68,2.45c6.29,8.13,13.66,14.44,24.67,14.6c1,2.26,1.84,4.6,3.04,6.74c1.63,2.91,0.46,4.07-2.32,4.92
			c-14.35,4.43-27.11,2.56-37.53-9.12c-1.1-1.24-2.27-2.43-3.5-3.54C645.95,338.62,644.24,337.95,642.76,340.4z"/>
		<path class="st2" d="M475.78,86.95c-0.54,8.22,2.86,14.9,8.44,20.54c1.71,1.73,2,2.93,0.99,5.11c-2.09,4.46-3.83,9.08-6.16,14.71
			c0.28-11.92-6.76-17.32-15.23-22.01c-1.5,2.26-1.17,4.67-1.83,6.79c-6.63-8.47-4.67-22.53,0.67-31.42
			c1.32-2.2,2.51-1.59,3.98-0.51C469.7,82.42,472.74,84.69,475.78,86.95z"/>
		<path class="st2" d="M494,62.08c-2.08,7.99,0.18,15.12,4.6,21.68c1.34,1.99,1.25,3.25-0.13,5.16c-2.59,3.57-4.81,7.41-7.38,11.45
			c-1.51-11.5-4.88-17.13-12.55-21.38c-1.44,1.2-0.81,3.52-2.5,4.59c-3.09-10.48,1.13-18.88,7.39-26.83c1.58-2,2.36-1.31,3.83-0.07
			C489.45,58.54,490.66,61.66,494,62.08z"/>
		<path class="st2" d="M670.07,289.04c-9.97,6.28-13.45,15.9-13.71,27.05c-0.05,2.3-0.84,3.17-2.97,3.65
			c-5.16,1.16-10.27,2.55-15.4,3.85c1.34-18.96,8.97-29.28,25.4-34.69C665.75,288.13,667.87,287.98,670.07,289.04z"/>
		<path class="st2" d="M515.36,43.3c-2.56,6.97-1.47,13.72,1.52,20.22c1.01,2.19,0.96,3.42-1.05,4.94c-3.25,2.46-6.24,5.26-9.2,7.8
			c1.26-6.74-1.57-12.89-5.96-18.67c-1.87-2.47-3.09-2.2-4.68-0.06c0.18-9.29,6.02-15.33,12.16-21.21c1.2-1.15,1.94-0.67,2.71,0.5
			C512.32,38.99,513.86,41.13,515.36,43.3z"/>
		<path class="st2" d="M694.34,340.88c2.03-0.95,2.72-2.07,1.31-4.31c-5-7.97-10.7-14.89-22.05-15.77c4.46-1.9,8-3.32,11.46-4.91
			c1.66-0.76,2.65-0.24,3.88,0.93c7.51,7.15,16.1,11.6,26.88,10.17c0.09,0.48,0.08,1.02,0.29,1.44c3.29,6.58,3.28,6.54-3.86,9.67
			C706.51,340.62,700.57,341.67,694.34,340.88z"/>
		<path class="st2" d="M723.41,322.89c-6.33-7.56-13.12-14.28-25.64-13.11c4.64-3.09,8.17-5.49,11.76-7.82
			c1.56-1.01,2.45,0.58,3.44,1.22c8.58,5.55,17.61,8.39,27.77,4.93c3.91,4.47,1.27,6.89-2.67,9.2
			C733.47,320.01,729.02,322.91,723.41,322.89z"/>
		<path class="st2" d="M540.11,27.04c-3.72,6.26-3.73,12.96-1.98,19.72c0.63,2.44,0.33,3.84-1.93,5.22
			c-3.51,2.15-6.75,4.73-10.1,7.13c-0.3-0.21-0.59-0.42-0.89-0.63c3.59-8.22,0.72-15.46-3.42-22.51
			c1.67-7.54,7.95-10.79,13.63-14.56c1.24-0.83,2.13-0.11,2.67,1.14C538.75,24.06,539.44,25.54,540.11,27.04z"/>
		<path class="st2" d="M745.99,301.66c-4.35-2.69-8.33-6.08-13.41-7.45c-3.77-1.02-7.58-0.69-12.76,0.21
			c4.13-3.87,7.3-7.02,10.69-9.91c1.42-1.21,2.71,0.55,3.99,1.05c9.01,3.54,17.97,4.87,26.88-0.26c1.49,1.23,2.49,2.14,0.57,4.22
			C757.32,294.54,751.98,298.5,745.99,301.66z"/>
		<path class="st2" d="M567.11,15.01c-4.83,5.67-6.19,12.37-5.41,19.52c0.28,2.53-0.63,3.46-2.69,4.39
			c-3.93,1.77-7.72,3.84-11.57,5.78c-0.2-0.29-0.4-0.57-0.6-0.86c5.05-7.38,3.46-15.05,1.02-22.76c5.11-2.56,8.92-7.09,14.54-9.02
			C565.87,10.86,566.94,11.76,567.11,15.01z"/>
		<path class="st2" d="M762.97,276.75c-7.5-2.84-15-5.56-23.23-2.04c2.48-3.26,5.03-6.48,7.41-9.81c1.51-2.12,3.21-0.94,4.9-0.62
			c9.27,1.76,18.21,1.77,25.86-4.95C775.4,267.26,769.27,272.08,762.97,276.75z"/>
		<path class="st2" d="M517.95,103.05c-8.97-3.35-17.66-3.97-26.16,2.35c2.52-4.33,5.11-8.63,7.55-13.01
			c1.21-2.17,2.57-1.2,4.15-0.64c7.94,2.82,15.82,3.53,23.43-1.09c1.83,2.94-0.88,4.35-2.13,6.23
			C523.05,99.52,520.46,101.25,517.95,103.05z"/>
		<path class="st2" d="M774.75,250.24c-6.63-0.92-13.18-1.26-19.43,2.53c1.84-3.49,3.73-6.95,5.49-10.48
			c0.76-1.53,1.66-2.16,3.49-1.95c7.1,0.81,13.77-0.92,20.18-3.85c0,4.55-3.47,7.01-5.99,10.07
			C777.36,247.93,775.38,248.4,774.75,250.24z"/>
		<path class="st2" d="M505.73,122.33c-8.48-0.78-16.52-0.03-23.37,7.93c0.97-6.16,3.19-10.42,4.86-14.85
			c0.7-1.86,1.99-1.02,3.28-0.87c7,0.84,13.94,1,20.3-2.84C511.67,116.46,506.44,118.31,505.73,122.33z"/>
		<path class="st2" d="M696.51,29.4c-0.67,5.08,0.36,9.78,3.16,14.09c-0.33,0.24-0.65,0.49-0.98,0.73
			c-0.47-0.14-0.96-0.24-1.42-0.42c-7.87-3.11-14.81-6.81-12.61-17.37c0.34-1.62-0.74-3.53-1.16-5.3
			C689.26,21.65,692.75,25.75,696.51,29.4z"/>
		<path class="st2" d="M721.01,43.04c-1.45,5.32-1.64,10.63,1.03,17.21c-5.18-3.71-9.12-6.56-13.11-9.36
			c-1.21-0.85-1.1-1.86-0.7-3.05c1.29-3.81,1.23-7.8,1.55-11.74c2.51-0.83,4.16,0.35,5.84,2.12
			C717.27,39.96,718.67,42.05,721.01,43.04z"/>
		<path class="st2" d="M584.95,45.67c-5.11-5.3-10.94-8.85-19.62-7.1c4.57-3.67,6.18-8.31,9.54-11.57c1.53,0.36,3.06,0.72,4.59,1.08
			c-1.65,2.21-3.75,3.94-5.82,5.34c6.89,3.21,13.73,3.23,20.31-1.09c1.58,1.86-0.22,2.85-1.01,4.16
			C590.82,40.03,587.51,42.52,584.95,45.67z"/>
		<path class="st2" d="M495.06,144.28c-7.89,1.48-14.95,4.25-19.06,11.98c0.28-1.92,0.5-3.85,0.86-5.75
			c0.66-3.41,0.57-7.35,2.34-10.06c1.81-2.77,6.07-0.74,9.12-1.69c3.46-1.08,6.91-2.17,10.37-3.25
			C499.28,139.17,495.19,140.91,495.06,144.28z"/>
		<path class="st2" d="M781.81,222.98c-5.4,0.69-10.62,1.86-15.43,7.23c1.54-5.43,2.67-9.36,3.78-13.29
			c0.34-1.2,0.82-2.04,2.33-2.02c5.79,0.1,10.88-2.44,16.11-4.42c0.22,3.46-2.1,5.66-3.96,8.12
			C783.6,219.99,781.6,220.79,781.81,222.98z"/>
		<path class="st1" d="M593.95,32.33c-6.57,4.31-13.41,4.3-20.31,1.09c2.07-1.41,4.18-3.13,5.82-5.34
			c5.98-3.42,12.07-3.56,18.31-0.57C597.57,29.95,594.83,30.41,593.95,32.33z"/>
		<path class="st2" d="M742.84,61.27c-1.98,5.03-4.02,10.06-2.39,15.75c-0.39,0.21-0.78,0.43-1.16,0.64
			c-3.19-3.4-6.33-6.87-9.61-10.18c-1.3-1.31-0.62-2.27-0.04-3.49c0.91-1.93,1.66-3.94,2.47-5.91
			C737.63,52.59,739.48,59.46,742.84,61.27z"/>
		<path class="st2" d="M761.46,84.11c-3.54,4.67-6.35,9.59-6,16c-2.74-4.2-5.52-8.36-8.19-12.6c-1.34-2.12,0.77-3.12,1.73-4.47
			c0.74-0.15,1.05-0.53,0.7-1.28c0,0-0.01-0.04-0.01-0.04c0.77,0.08,1.9,0.54,2.27,0.19C756.31,77.79,759.23,79.35,761.46,84.11z"/>
		<path class="st2" d="M489.06,167.99c-6.23,3.3-11.71,7.3-13.65,15.88c-1.32-6.23-0.51-11.18-0.59-16.09
			c-0.03-1.76,0.94-2.3,2.41-2.47c4.87-0.55,9.21-2.69,13.6-4.64C491.68,163.46,488.5,165.27,489.06,167.99z"/>
		<path class="st2" d="M491.72,190.05c-6.38,4.15-11.97,8.91-12.42,17.67c-0.84-0.66-1.17-0.78-1.19-0.96
			c-0.69-4.87-4.24-10.78-1.53-14.27c2.43-3.12,8.26-4.25,12.37-6.71C488.9,187.83,489.28,189.61,491.72,190.05z"/>
		<path class="st2" d="M781.3,197.04c-2.49,2.04-4.97,4.07-8.53,6.98c1.35-5.24,2.14-9.28,2.3-13.39c0.06-1.48,1.11-1.92,2.28-2.17
			c4.11-0.88,7.61-3.17,11.38-4.84c0.25,4.74-3.47,7.06-5.99,10.18C782.09,194.59,779.08,194.84,781.3,197.04z"/>
		<path class="st2" d="M636.21,324.13c-3.66,1.54-7.35,3.03-10.98,4.64c-1.32,0.58-2.46,0.55-3.78-0.02
			c-9.33-4.05-18.95-7.18-28.91-9.23c-1.37-0.28-2.69-0.67-2.1-2.58c8.93,1.12,17.37,4.12,25.72,7.18
			c4.95,1.81,9.48,2.18,14.37,0.42C632.3,323.9,634.23,322.83,636.21,324.13z"/>
		<path class="st2" d="M495.19,213.22c-5.19,5.19-9.38,10.83-8.39,18.93c-2.86-3.93-3.82-8.53-5.39-12.86
			c-0.51-1.39,0.06-2.12,1.3-2.71c3.94-1.86,6.86-5.11,10.26-7.71C493.71,210.31,494.45,211.76,495.19,213.22z"/>
		<path class="st2" d="M569.69,293.98c1.24,13.07,1.46,13.64,8.58,21.9c-4.28-0.29-7.66-2.2-11.21-3.46
			c-1.37-0.49-1.57-1.5-1.27-2.78c1.3-5.58,0.62-11.18,0.11-16.78C567.16,293.24,568.42,293.61,569.69,293.98z"/>
		<path class="st2" d="M503.18,235.08c-4.81,5.63-4.89,12.68-5.82,19.47l0.04,0.01c-1.86-3.44-3.66-6.91-5.6-10.3
			c-0.9-1.57-1.52-2.83,0.41-4.14c3.58-2.42,5.8-6.18,8.74-9.24C501.69,232.29,502.43,233.68,503.18,235.08z"/>
		<path class="st2" d="M515.86,253.91c-2.95,6.2-4.03,12.72-2.78,19.54c-0.7,0-0.93,0.04-0.95-0.01c-1.77-4.01-8.28-6.21-6.5-10.97
			c1.53-4.08,4.9-7.75,7.05-11.85C513.74,251.72,514.8,252.82,515.86,253.91z"/>
		<path class="st2" d="M776.26,109.11c-4.97,4.07-8.13,9.28-9.5,16.4c-2.02-5.08-3.68-9.28-5.34-13.47c2.85-1.51,5.86-2.77,8.5-4.58
			C772.93,105.38,774.68,106.52,776.26,109.11z"/>
		<path class="st2" d="M531.34,271.26c-1.72,6.52-2.31,13.02,1.3,20.39c-1.82-1.16-2.56-1.51-3.17-2.03
			c-2.28-1.93-5.14-3.55-6.62-5.98c-1.8-2.97,2.06-5.06,2.67-7.86c0.52-2.41,1.56-4.71,2.36-7.05
			C529.43,269.05,530.29,270.28,531.34,271.26z"/>
		<path class="st2" d="M786,136.89c-5.42,3.29-10.39,6.98-12.46,13.71c-1.16-4.65-2.6-9.25-3.36-13.96
			c-0.49-3.04,3.04-3.27,4.69-4.82c0.31,2.36-1.35,3.96-2.26,5.85c-0.34,0.34-0.68,0.72-0.09,1.08c0.11,0.07,0.48-0.28,0.73-0.44
			c2.84-0.65,5.67-1.4,8.54-1.92C783.18,136.12,784.87,134.66,786,136.89z"/>
		<path class="st2" d="M552.69,305.18c-3.33-1.1-6.46-2.88-8.86-5.2c-2.97-2.88,1.04-5.86,1.06-8.97c0.02-2.77,0.61-5.54,0.95-8.31
			c1.28,0.45,2.56,0.91,3.83,1.36c-0.78,7.18-0.72,14.19,3.86,20.35C553.26,304.68,552.97,304.93,552.69,305.18z"/>
		<path class="st2" d="M787.06,166.96c-4.06,2.77-8.54,5.12-11,10.13c-0.35-4.47-0.64-8.94-1.09-13.4c-0.15-1.51,0.68-2,1.76-2.59
			c2.76-1.51,5.46-3.12,8.19-4.7c-0.56,4.57-3.89,7.52-7.12,11.44C781.38,167.49,784.22,167.23,787.06,166.96z"/>
		<path class="st2" d="M498.76,135.96c-0.51-1.16,0.58-1.04,1.1-1.38C499.5,135.03,499.13,135.49,498.76,135.96z"/>
		<path class="st2" d="M784.67,236.86c-0.51-1.23,0.53-1.27,1.21-1.59C785.48,235.8,785.07,236.33,784.67,236.86z"/>
		<path class="st2" d="M774.85,131.97c0.08-0.65,0.44-1.02,1.09-1.09C775.58,131.25,775.21,131.61,774.85,131.97z"/>
		<path class="st2" d="M510.86,111.94c-0.01-0.77,0.51-0.97,1.13-1.05C511.62,111.24,511.24,111.59,510.86,111.94z"/>
		<path class="st2" d="M511.92,111.01c0.36-0.31,0.71-0.61,1.07-0.92C512.63,110.4,512.27,110.7,511.92,111.01z"/>
		<path class="st2" d="M788.76,210.92c-0.36-1.06,0.53-1.09,1.13-1.36C789.52,210.01,789.14,210.46,788.76,210.92z"/>
		<path class="st2" d="M788.79,183.91c-0.14-0.87,0.46-1.05,1.11-1.18C789.53,183.13,789.16,183.52,788.79,183.91z"/>
		<path class="st2" d="M490.87,160.95c-0.07-0.83,0.51-0.93,1.12-0.99C491.62,160.29,491.24,160.62,490.87,160.95z"/>
		<path class="st1" d="M12.41,542.74c0.33-0.57,0.43-0.7,0.48-0.85c1.96-5.28,2.5-12.32,6.27-15.35c4.06-3.26,11.2-0.75,16.99-0.97
			c3.49-0.13,7,0.11,10.49-0.07c2.67-0.14,3.37,0.7,3.1,3.42c-2.2,22.69-4.25,45.4-6.33,68.11c-1.15,12.6-2.3,25.19-3.36,37.8
			c-0.38,4.51,0.18,9.01,1.18,13.39c1.79,7.84,6.03,13.69,14.28,15.68c9.51,2.28,17.88,0.23,24.49-7.22c7-7.9,9.9-17.66,11.45-27.76
			c3.95-25.71,4.54-51.41-2.04-76.84c-9.69-37.45-32.66-63.25-69.31-75.65c-38.67-13.08-77.46-12.82-114.82,4.79
			c-42.43,20-66.31,54.76-75.23,100.09c-5.53,28.14-5.58,56.43,3.44,83.95c15.95,48.63,50.24,78.03,99.33,89.38
			c39.98,9.24,79.4,3.76,117.7-10.25c6.86-2.51,13.56-5.46,20.25-8.4c2.41-1.06,3.58-1.13,4.68,1.75c3.95,10.41,8.09,20.76,12.46,31
			c1.29,3.04,0.18,3.85-2.3,4.99c-34.54,15.88-70.83,23.5-108.8,24.14c-29.57,0.5-58.56-2.19-86.28-13.14
			c-60.1-23.74-96.47-67.54-108.3-130.92c-7.76-41.57-3.27-82.32,13.75-121.19c18.8-42.95,50.38-73.24,94.15-89.9
			c50.74-19.32,102.34-19.95,153.38-1.7c50.53,18.07,81.04,54.98,93.17,106.83c7.62,32.58,8.32,65.39-2.81,97.52
			c-8.92,25.75-24.55,45.76-51.35,54.64c-17.26,5.73-34.64,6.4-51.2-2.99c-9.73-5.52-16.9-13.35-21.18-23.76
			c-0.61-1.48-0.71-3.27-2.47-4.58c-5.61,6.77-11.44,13.24-18.1,18.99c-35.32,30.5-108.21,20.24-121.23-43.66
			c-6.37-31.25-1.52-60.77,18.22-86.6c17.26-22.6,41.07-32.98,69.02-34.89c20.75-1.42,39.23,3.71,54.5,18.42
			C10.7,541.51,11.4,541.95,12.41,542.74z M-88.75,623.63c0.2,2.62,0.31,6.29,0.77,9.91c2.04,15.92,11.25,26.85,25.76,30.01
			c13.61,2.97,26.66,0.98,38.19-6.93c19.54-13.4,26.4-32.95,25.58-55.8c-0.34-9.34-2.87-18.04-8.82-25.46
			c-13.28-16.56-42.27-18.55-60.04-3.91C-83.36,584.67-88.35,602.69-88.75,623.63z"/>
		<path class="st0" d="M-165.78,615.84c1.19-34.57,9.08-66.78,31.45-94.35c4.76-5.86,10.95-8.41,17.35-11
			c20.35-8.23,41.66-11.04,63.38-9.45c21.27,1.56,41.89,6.17,60.53,17.3c1.68,1,3.95,1.66,4.04,4c0.08,2.13-0.39,4.51-2.1,5.87
			c-1.78,1.41-2.97-0.89-4.2-1.67c-11.91-7.57-24.79-11.36-38.97-11.78c-24.71-0.73-47.25,5.26-67.31,19.95
			c-9.65,7.06-17.42,15.84-23.68,25.95c-1.43,2.31-2.97,4.5-5.11,6.06c-16.41,11.97-26.97,28.08-33.6,47.02
			C-164.29,614.62-164.42,615.71-165.78,615.84z"/>
		<path class="st0" d="M52.66,581.78c3.48,9.3,4.61,18.89,5.62,28.61c1.41,13.68-0.5,27.07-1.23,40.58
			c-0.09,1.63,0.02,3.72-1.83,4.04c-1.63,0.29-2.98-1.25-3.88-2.73c-4.44-7.3-3.57-15.39-3.06-23.29
			c0.64-9.88,1.83-19.72,2.76-29.58C51.59,593.55,52.12,587.67,52.66,581.78z"/>
		<path class="st1" d="M693.25,798.53c-42.04-0.69-83.16-14.95-116.39-48.44c-25.71-25.91-40.07-57.73-46.19-93.34
			c-7.18-41.79-5.33-83.13,10.52-122.8c23.23-58.15,66.57-92.12,128.28-101.94c35.76-5.69,70.76-2.05,103.81,13.66
			c36.68,17.44,59.08,46.95,70.61,85.35c0.71,2.36,0.66,3.38-2.15,4.08c-16.14,4-32.25,8.15-48.3,12.47
			c-3.33,0.89-3.55-1.34-4.37-3.21c-6.67-15.11-15.43-28.72-28.36-39.3c-19.62-16.05-42.7-20.9-67.31-20.28
			c-44.66,1.13-80.45,26.53-95.27,69.36c-14.36,41.5-14.48,83.64,1.95,124.58c16.15,40.23,47.06,61.62,90.46,64.42
			c18.89,1.22,37.24-1.35,54.39-9.82c21.03-10.38,34.52-27.73,43.68-48.73c1.6-3.67,3.1-4.53,6.86-3.51
			c15.09,4.09,30.22,8.07,45.43,11.69c3.89,0.92,3.68,2.47,2.76,5.41c-16.16,51.39-50.39,83.31-102.87,95.58
			C726.62,797.06,712.22,798.37,693.25,798.53z"/>
		<path class="st1" d="M-223.82,186.97c0.44-38.59,7.63-75.48,28.58-108.6c26.4-41.74,64.73-65.65,113.17-73.27
			c35.26-5.55,69.79-2.35,102.55,12.59c37.82,17.25,61.02,47.11,72.79,86.48c0.78,2.62,0.34,3.32-2.26,3.97
			c-15.98,3.97-31.95,8.01-47.83,12.35c-3.48,0.95-3.89-0.99-4.84-3.15c-6.89-15.77-16.15-29.81-29.88-40.53
			C-7.92,64.02-26.91,58.72-47.32,57.89c-29.67-1.21-56.43,6.47-78.4,27.23c-17.78,16.8-27.85,37.98-32.54,61.69
			c-6.85,34.61-6.1,68.93,6.39,102.3c15.81,42.24,52.21,67.01,97.3,67.21c22.03,0.1,42.69-4.12,60.84-17.28
			c14.86-10.77,24.84-25.34,31.91-42.01c1.36-3.22,2.72-4,6.19-3.05c15.24,4.16,30.55,8.09,45.9,11.85c3.18,0.78,3.88,1.61,2.85,4.9
			c-17.41,55.97-55.68,88.07-112.84,97.95c-37.83,6.54-74.73,2.8-109.62-13.98c-45.27-21.78-72.84-58.29-86.45-106.02
			c-2.65-9.3-4.51-18.78-5.77-28.35C-223.03,209.27-223.9,198.15-223.82,186.97z"/>
		<path class="st1" d="M186.69,244.03c4.92,15.12,10.86,29.36,20.03,42.04c16.96,23.46,39.6,34.02,68.43,29.23
			c23.66-3.93,36.96-19.76,38.99-43.79c1.47-17.5-5.21-30.66-18.92-40.9c-15.06-11.25-32.34-18.35-49.12-26.37
			c-19.4-9.28-38.51-18.95-54.73-33.46c-24.65-22.05-34.15-50.07-30.71-82.21c4.97-46.5,36.7-79.2,83-84.9
			c43.11-5.3,87.31,10.74,112.31,57.07c1.26,2.34,1.4,3.54-1.14,5.13c-14.25,8.9-28.42,17.93-42.5,27.09
			c-2.58,1.68-3.63,1.39-5.14-1.26c-5.54-9.78-12.27-18.64-21.65-25.14c-12.36-8.56-26.06-10.96-40.47-7.29
			c-24.53,6.25-35.47,34.04-22.49,56.3c7.43,12.74,19.36,20.35,31.71,27.39c16.76,9.57,34.65,16.91,51.72,25.88
			c14.64,7.69,28.68,16.23,40.84,27.56c18.27,17.02,27.51,38.07,27.74,62.99c0.21,22.52-3.89,44.1-15.8,63.56
			c-16.26,26.57-40.89,40.72-70.93,46.11c-33.69,6.04-65.72,1.69-94.94-17c-27.43-17.55-44.81-42.61-53.52-73.83
			c-0.49-1.74-1.56-3.61,0.99-5.19C155.8,263.51,171.11,253.82,186.69,244.03z"/>
		<path class="st1" d="M406.66,597.45c3.36,1.46,5.6,2.49,7.88,3.42c29.51,12,46.58,33.79,51.5,65.22
			c3.46,22.11,2.27,43.91-5.62,64.92c-12.85,34.18-39.31,51.96-73.78,59.64c-12.58,2.8-25.37,3.71-38.19,3.75
			c-42.15,0.13-84.31-0.02-126.46,0.16c-4.34,0.02-5.06-1.28-5.05-5.28c0.11-116.79,0.11-233.58-0.01-350.37
			c0-4.12,0.9-5.15,5.09-5.13c44.15,0.22,88.31,0,132.45,0.34c17.14,0.13,33.75,3.73,49.12,11.65c27.42,14.13,40.6,37.72,44.28,67.5
			c1.67,13.51,1.48,26.94-2.28,40.1C439.77,573.72,427.6,588.74,406.66,597.45z M277,685.52c0,16.48,0.11,32.96-0.09,49.44
			c-0.04,3.57,1,4.35,4.41,4.29c12.98-0.21,25.97,0.03,38.95-0.12c13.96-0.15,27.94,0.7,41.87-1.18
			c23.46-3.17,38.64-15.51,43.52-35.76c1.69-7.01,1.91-14.15,1.56-21.32c-0.8-15.93-6.09-29.6-20.01-38.69
			c-9.73-6.36-20.73-8.94-32.14-9.51c-24.95-1.24-49.92-0.19-74.88-0.6c-3.38-0.06-3.22,1.68-3.22,4
			C277.02,652.56,277,669.04,277,685.52z M277,532.86c0,12.99,0.26,26-0.14,38.98c-0.14,4.67,1.4,5.29,5.52,5.25
			c20.99-0.21,41.98-0.13,62.97-0.07c4.52,0.01,8.99-0.34,13.42-1.12c14.77-2.6,25.54-10.13,30.02-25.02
			c2.38-7.9,2.81-16.08,2.13-24.25c-1.85-22.29-14.15-34.95-36.51-36.86c-24.93-2.13-49.94-0.39-74.91-0.95
			c-3.08-0.07-2.5,1.82-2.5,3.56C277,505.87,277,519.36,277,532.86z"/>
		<path class="st2" d="M497.36,254.55c0.39-0.07,0.78-0.84,1.15-0.15c0.27,0.51,0.06,0.59-0.35,0.15c-0.11-0.12-0.49,0-0.75,0.01
			C497.39,254.56,497.36,254.55,497.36,254.55z"/>
		<path class="st2" d="M675.89,32.42c0.47,0.37,1.52,0.73,1.06,1.31c-0.71,0.9-1.66,0.36-2.37-0.38
			C675.02,33.04,675.46,32.73,675.89,32.42z"/>
		<path class="st2" d="M547.43,44.71c-0.42,0.05-1.11,0.27-1.2,0.12c-0.32-0.53,0.11-0.82,0.61-0.98
			C547.04,44.14,547.24,44.42,547.43,44.71z"/>
		<path class="st2" d="M770.66,156.47c-0.1,0.1-0.19,0.19-0.29,0.29c-0.08-0.11-0.23-0.23-0.22-0.34c0.01-0.11,0.17-0.2,0.27-0.29
			C770.51,156.24,770.58,156.35,770.66,156.47z"/>
		<path class="st2" d="M764.7,130.39c-0.1,0.09-0.21,0.19-0.31,0.28c-0.08-0.11-0.24-0.24-0.23-0.34c0.01-0.1,0.19-0.19,0.29-0.29
			C764.54,130.16,764.62,130.28,764.7,130.39z"/>
		<path class="st2" d="M699.67,43.49c0.16,0.4,0.56,1.06,0.45,1.16c-0.62,0.58-1.09,0.2-1.43-0.44
			C699.02,43.97,699.34,43.73,699.67,43.49z"/>
		<path class="st2" d="M553.54,304.42c0.06,0.42,0.31,1.05,0.13,1.22c-0.45,0.43-0.78-0.01-0.98-0.46
			C552.97,304.93,553.26,304.68,553.54,304.42z"/>
		<path class="st2" d="M693.41,305.65c-0.4,0.05-1.08,0.26-1.15,0.12c-0.29-0.52,0.11-0.8,0.61-0.93
			C693.08,305.09,693.26,305.36,693.41,305.65z"/>
		<path class="st0" d="M749.7,81.75c0.36,0.75,0.04,1.13-0.7,1.28C748.86,82.4,748.95,81.9,749.7,81.75z"/>
		<polygon class="st2" points="740.37,78.49 740.33,78.19 740.56,78.25 		"/>
		<path class="st2" d="M526.11,59.11c-0.29,0.26-0.7,0.79-0.86,0.72c-0.88-0.37-0.18-0.88-0.02-1.35
			C525.52,58.69,525.81,58.9,526.11,59.11z"/>
		<path class="st2" d="M669.8,315.26c-0.12,0.21-0.24,0.43-0.36,0.64c-0.11-0.11-0.33-0.25-0.31-0.33c0.05-0.24,0.2-0.45,0.31-0.67
			C669.55,315.02,669.66,315.13,669.8,315.26z"/>
		<path class="st0" d="M634.96,224.55c-9.13,2.1-18.12-0.53-27.18-0.79c-2.29-0.07-1.81-1.99-1.81-3.39
			c0.04-12.13,0.11-24.26,0.18-36.4c6.86-0.41,13.52,0.29,20.01,2.78c8.5,3.27,16.64,11.53,14.96,24.51
			C640.42,216.59,637.21,220.23,634.96,224.55z"/>
		<path class="st2" d="M634.96,224.55c2.25-4.32,5.47-7.96,6.16-13.29c1.68-12.98-6.46-21.24-14.96-24.51
			c-6.5-2.5-13.16-3.19-20.01-2.78c-0.68-10.97-0.67-10.86,10.08-11.75c7.91-0.65,15.63-0.21,23.1,2.62
			c12.2,4.62,19.14,14.72,18.13,26.3C656.32,214.24,648.93,221.93,634.96,224.55z"/>
		<path class="st2" d="M606.14,129.03c-0.63-10.37-0.62-10.24,9.93-11.27c5.36-0.52,10.64-0.79,15.7,1.3
			c7.89,3.25,12.74,8.96,13.13,17.71c0.39,8.71-4.28,14.35-11.78,17.99c-2.69,1.3-5.5,2.33-8.51,2.65c0.5-1.03,0.89-2.13,1.5-3.09
			c5.32-8.34,3.11-17.45-5.64-22.36C616.06,129.49,611.21,128.61,606.14,129.03z"/>
		<path class="st0" d="M606.14,129.03c5.06-0.42,9.92,0.46,14.33,2.94c8.75,4.91,10.96,14.02,5.64,22.36c-0.61,0.96-1,2.05-1.5,3.09
			c-5.25,1.96-10.73,1.35-16.14,1.57c-2.5,0.1-2.56-1.24-2.54-3.08C606.04,146.94,606.08,137.99,606.14,129.03z"/>
		<path class="st0" d="M773.26,138.3c-0.25,0.16-0.62,0.51-0.73,0.44c-0.59-0.36-0.25-0.74,0.09-1.08
			C772.84,137.87,773.05,138.08,773.26,138.3z"/>
		<path class="st2" d="M-88.75,623.63c0.4-20.93,5.39-38.95,21.44-52.18c17.77-14.64,46.76-12.65,60.04,3.91
			c5.95,7.42,8.48,16.12,8.82,25.46c0.82,22.85-6.04,42.4-25.58,55.8c-11.53,7.9-24.58,9.9-38.19,6.93
			c-14.5-3.17-23.72-14.09-25.76-30.01C-88.45,629.91-88.56,626.25-88.75,623.63z M-33.95,635.45c0-2.39,0.12-4.06-0.02-5.71
			c-1.76-20.73-13.76-34.02-35.82-35.02c-4.99-0.23-6.9,2.09-7.99,6.12c-2.4,8.84-4.02,17.85-3.09,27.01
			c2.16,21.21,12.31,30.31,34.08,28.89c8.49-0.55,10.65-2.4,11.64-9.17C-34.53,643.33-33.24,639.11-33.95,635.45z"/>
		<path class="st2" d="M277,685.52c0-16.48,0.02-32.96-0.02-49.44c-0.01-2.32-0.17-4.06,3.22-4c24.96,0.41,49.93-0.64,74.88,0.6
			c11.42,0.57,22.41,3.15,32.14,9.51c13.92,9.09,19.21,22.76,20.01,38.69c0.36,7.17,0.13,14.31-1.56,21.32
			c-4.88,20.26-20.06,32.6-43.52,35.76c-13.93,1.88-27.91,1.02-41.87,1.18c-12.98,0.14-25.97-0.1-38.95,0.12
			c-3.42,0.06-4.46-0.72-4.41-4.29C277.12,718.48,277,702,277,685.52z M284.99,698.08c0,9.65,0.16,19.31-0.08,28.95
			c-0.09,3.69,0.94,4.86,4.73,4.82c18.3-0.19,36.62,0.25,54.91-0.24c7.68-0.21,15.5-0.63,23.07-2.7c2.04-0.56,3.12-1.21,3.4-3.47
			c0.79-6.42,0.83-12.7,0.19-19.23c-2.08-21.29-15.74-34.28-35.08-38.51c-16.04-3.5-32.29-2.77-48.51-2.83
			c-2.79-0.01-2.64,1.87-2.64,3.75C285,678.44,285,688.26,284.99,698.08z"/>
		<path class="st2" d="M277,532.86c0-13.49,0-26.99,0-40.48c0-1.74-0.58-3.63,2.5-3.56c24.97,0.56,49.98-1.19,74.91,0.95
			c22.35,1.91,34.66,14.57,36.51,36.86c0.68,8.17,0.25,16.34-2.13,24.25c-4.49,14.89-15.25,22.42-30.02,25.02
			c-4.43,0.78-8.9,1.13-13.42,1.12c-20.99-0.06-41.98-0.14-62.97,0.07c-4.12,0.04-5.66-0.58-5.52-5.25
			C277.26,558.85,277,545.85,277,532.86z M320.41,568.84c7.15,0,14.31,0,21.46,0c13.18,0,13.18,0,13.13-13.2
			c-0.06-14.64-8.75-26.5-22.82-30.83c-14.74-4.53-29.94-2.61-44.98-2.9c-2.56-0.05-2.18,2.02-2.18,3.61
			c-0.02,13.14,0.07,26.29-0.08,39.43c-0.03,3.11,1.03,3.98,4.03,3.94C299.44,568.75,309.93,568.84,320.41,568.84z"/>
		<path class="st0" d="M-33.95,635.45c0.7,3.65-0.59,7.87-1.21,12.11c-0.99,6.78-3.16,8.62-11.64,9.17
			c-21.77,1.42-31.92-7.68-34.08-28.89c-0.93-9.16,0.69-18.16,3.09-27.01c1.09-4.03,3-6.35,7.99-6.12
			c22.07,1.01,34.06,14.3,35.82,35.02C-33.82,631.39-33.95,633.07-33.95,635.45z"/>
		<path class="st0" d="M285,698.08c0-9.82,0-19.64,0-29.46c0-1.88-0.15-3.76,2.64-3.75c16.22,0.06,32.48-0.67,48.51,2.83
			c19.34,4.23,33,17.21,35.08,38.51c0.64,6.53,0.6,12.81-0.19,19.23c-0.28,2.26-1.36,2.91-3.4,3.47c-7.57,2.08-15.39,2.49-23.07,2.7
			c-18.29,0.5-36.61,0.06-54.91,0.24c-3.79,0.04-4.83-1.13-4.73-4.82C285.15,717.39,284.99,707.73,285,698.08z"/>
		<path class="st0" d="M320.41,568.84c-10.48,0-20.96-0.09-31.44,0.06c-3,0.04-4.06-0.83-4.03-3.94
			c0.15-13.14,0.05-26.28,0.08-39.43c0-1.6-0.38-3.66,2.18-3.61c15.04,0.29,30.23-1.63,44.98,2.9
			c14.07,4.32,22.77,16.18,22.82,30.83c0.05,13.2,0.05,13.2-13.13,13.2C334.71,568.84,327.56,568.84,320.41,568.84z"/>
	</g>
</g>
</svg>
